<svg 
 xmlns="http://www.w3.org/2000/svg"
 xmlns:xlink="http://www.w3.org/1999/xlink"
 width="12px" height="12px">
<path fill-rule="evenodd"  fill="rgb(255, 188, 93)"
 d="M10.900,12.000 L1.100,12.000 C0.492,12.000 -0.000,11.511 -0.000,10.918 L-0.000,2.410 C-0.000,1.827 0.482,1.353 1.068,1.336 L1.068,2.787 C1.068,3.443 1.612,3.972 2.283,3.972 L3.050,3.972 C3.721,3.972 4.272,3.443 4.272,2.787 L4.272,1.331 L7.728,1.331 L7.728,2.787 C7.728,3.443 8.279,3.972 8.950,3.972 L9.717,3.972 C10.387,3.972 10.932,3.443 10.932,2.787 L10.932,1.336 C11.518,1.353 12.000,1.827 12.000,2.410 L12.000,10.918 C12.000,11.511 11.507,12.000 10.900,12.000 ZM10.576,10.388 L10.576,5.994 C10.576,5.737 10.363,5.529 10.100,5.529 L1.879,5.529 C1.616,5.529 1.403,5.737 1.403,5.994 L1.403,10.388 C1.403,10.644 1.616,10.853 1.879,10.853 L10.100,10.853 C10.363,10.853 10.576,10.644 10.576,10.388 L10.576,10.388 ZM8.916,10.218 L7.943,10.218 C7.789,10.218 7.665,10.096 7.665,9.946 L7.665,8.996 C7.665,8.845 7.789,8.723 7.943,8.723 L8.916,8.723 C9.069,8.723 9.194,8.845 9.194,8.996 L9.194,9.946 C9.194,10.096 9.069,10.218 8.916,10.218 ZM8.915,7.842 L7.943,7.842 C7.789,7.842 7.665,7.721 7.665,7.570 L7.665,6.620 C7.665,6.470 7.789,6.348 7.943,6.348 L8.915,6.348 C9.069,6.348 9.194,6.470 9.194,6.620 L9.194,7.570 C9.194,7.721 9.069,7.842 8.915,7.842 ZM6.486,10.218 L5.514,10.218 C5.360,10.218 5.236,10.096 5.236,9.946 L5.236,8.996 C5.236,8.845 5.360,8.723 5.514,8.723 L6.486,8.723 C6.640,8.723 6.764,8.845 6.764,8.996 L6.764,9.946 C6.764,10.096 6.640,10.218 6.486,10.218 ZM6.486,7.842 L5.514,7.842 C5.360,7.842 5.236,7.721 5.236,7.570 L5.236,6.620 C5.236,6.470 5.360,6.348 5.514,6.348 L6.486,6.348 C6.640,6.348 6.764,6.470 6.764,6.620 L6.764,7.570 C6.764,7.721 6.640,7.842 6.486,7.842 ZM4.057,10.218 L3.085,10.218 C2.931,10.218 2.806,10.096 2.806,9.946 L2.806,8.996 C2.806,8.845 2.931,8.723 3.085,8.723 L4.057,8.723 C4.210,8.723 4.335,8.845 4.335,8.996 L4.335,9.946 C4.335,10.096 4.210,10.218 4.057,10.218 ZM4.057,7.842 L3.085,7.842 C2.931,7.842 2.806,7.721 2.806,7.570 L2.806,6.620 C2.806,6.470 2.931,6.348 3.085,6.348 L4.057,6.348 C4.210,6.348 4.335,6.470 4.335,6.620 L4.335,7.570 C4.335,7.721 4.210,7.842 4.057,7.842 ZM9.699,3.194 L8.940,3.194 C8.710,3.194 8.524,3.011 8.524,2.787 L8.524,0.407 C8.524,0.182 8.710,-0.000 8.940,-0.000 L9.699,-0.000 C9.929,-0.000 10.115,0.182 10.115,0.407 L10.115,2.787 C10.115,3.011 9.929,3.194 9.699,3.194 ZM3.039,3.194 L2.281,3.194 C2.050,3.194 1.864,3.011 1.864,2.787 L1.864,0.407 C1.864,0.182 2.050,-0.000 2.281,-0.000 L3.039,-0.000 C3.269,-0.000 3.456,0.182 3.456,0.407 L3.456,2.787 C3.456,3.011 3.269,3.194 3.039,3.194 Z"/>
</svg>