<svg 
 xmlns="http://www.w3.org/2000/svg"
 xmlns:xlink="http://www.w3.org/1999/xlink"
 width="110px" height="110px">
<defs>
<linearGradient id="PSgrad_0" x1="0%" x2="100%" y1="0%" y2="0%">
  <stop offset="0%" stop-color="rgb(249,222,17)" stop-opacity="1" />
  <stop offset="100%" stop-color="rgb(255,232,58)" stop-opacity="1" />
</linearGradient>

</defs>
<path fill-rule="evenodd"  fill="url(#PSgrad_0)"
 d="M55.000,-0.000 C85.376,-0.000 110.000,24.624 110.000,55.000 C110.000,85.375 85.376,110.000 55.000,110.000 C24.624,110.000 -0.000,85.375 -0.000,55.000 C-0.000,24.624 24.624,-0.000 55.000,-0.000 Z"/>
<path fill-rule="evenodd"  fill="rgb(88, 78, 56)"
 d="M82.889,51.144 C82.883,51.180 82.877,51.213 82.868,51.247 C82.844,51.340 82.810,51.424 82.761,51.505 C82.744,51.535 82.725,51.562 82.704,51.590 C82.650,51.662 82.591,51.723 82.520,51.778 C82.485,51.806 82.450,51.829 82.411,51.852 C82.342,51.892 82.271,51.921 82.193,51.944 C82.164,51.953 82.140,51.974 82.109,51.980 C82.049,51.991 81.989,51.996 81.930,51.997 C81.926,51.998 81.924,51.999 81.920,51.999 L79.924,51.999 L79.924,74.999 C79.924,75.403 79.682,75.769 79.309,75.923 C79.185,75.975 79.055,75.999 78.927,75.999 C78.667,75.999 78.412,75.898 78.221,75.706 L72.527,69.999 L45.002,69.999 L45.002,74.999 C45.002,75.403 44.759,75.769 44.386,75.923 C44.262,75.975 44.133,75.999 44.004,75.999 C43.744,75.999 43.490,75.898 43.299,75.706 L33.321,65.707 C33.134,65.519 33.028,65.265 33.028,64.999 L33.028,58.999 C33.028,58.999 33.028,58.999 33.028,58.999 L33.028,39.999 L28.039,39.999 C27.679,39.999 27.347,39.805 27.170,39.490 C26.993,39.175 26.999,38.789 27.186,38.480 C28.893,35.661 31.208,34.302 34.766,34.052 C34.850,34.028 34.932,33.999 35.024,33.999 L71.942,33.999 C76.680,33.999 80.290,37.911 81.042,41.694 L82.889,50.800 C82.892,50.819 82.886,50.836 82.889,50.854 C82.896,50.903 82.918,50.948 82.918,50.999 C82.918,51.051 82.896,51.095 82.889,51.144 ZM33.028,36.328 C31.823,36.637 30.858,37.172 30.048,37.999 L33.028,37.999 L33.028,36.328 ZM73.644,60.291 C73.737,60.384 73.810,60.494 73.861,60.617 C73.911,60.740 73.938,60.869 73.938,61.000 C73.938,61.000 73.938,61.000 73.938,61.000 L73.938,68.585 L77.929,72.585 L77.929,51.999 L69.947,51.999 L69.947,56.585 L73.644,60.291 ZM45.002,67.999 L71.942,67.999 L71.942,62.000 L45.002,62.000 L45.002,67.999 ZM45.002,60.000 L70.531,60.000 L68.536,57.999 L45.002,57.999 L45.002,60.000 ZM45.002,50.999 L45.002,56.000 L67.951,56.000 L67.951,51.999 L46.000,51.999 C45.449,51.999 45.002,51.552 45.002,50.999 C45.002,50.982 45.011,50.967 45.012,50.950 L45.002,50.901 L45.002,50.999 ZM35.024,64.585 L43.006,72.585 L43.006,69.413 L35.024,61.413 L35.024,64.585 ZM35.024,58.586 L43.006,66.585 L43.006,49.413 L35.024,41.413 L35.024,58.586 ZM36.022,35.999 C35.674,35.999 35.342,36.009 35.024,36.027 L35.024,38.585 L43.006,46.585 L43.006,41.499 C43.006,41.493 43.010,41.488 43.010,41.482 C42.138,38.552 38.966,35.999 36.022,35.999 ZM42.008,35.999 L41.424,35.999 C43.270,37.413 44.694,39.431 45.125,41.598 L46.854,49.999 L50.756,49.999 L49.152,42.088 C48.569,39.159 45.673,35.999 42.008,35.999 ZM47.995,35.999 L47.543,35.999 C49.406,37.486 50.693,39.608 51.108,41.694 L52.792,49.999 L56.742,49.999 L55.139,42.088 C54.556,39.159 51.659,35.999 47.995,35.999 ZM53.982,35.999 L53.530,35.999 C55.393,37.486 56.680,39.608 57.095,41.694 L58.779,49.999 L62.729,49.999 L61.125,42.088 C60.543,39.159 57.646,35.999 53.982,35.999 ZM59.969,35.999 L59.517,35.999 C61.380,37.486 62.667,39.608 63.082,41.694 L64.766,49.999 L68.715,49.999 L67.112,42.088 C66.529,39.159 63.632,35.999 59.969,35.999 ZM65.955,35.999 L65.504,35.999 C67.366,37.486 68.654,39.608 69.069,41.694 L70.753,49.999 L74.702,49.999 L73.099,42.088 C72.516,39.159 69.619,35.999 65.955,35.999 ZM79.085,42.088 C78.503,39.159 75.606,35.999 71.942,35.999 L71.490,35.999 C73.353,37.486 74.640,39.608 75.055,41.694 L76.739,49.999 L80.689,49.999 L79.085,42.088 ZM67.561,59.652 C67.201,59.652 66.910,59.360 66.910,58.999 C66.910,58.639 67.201,58.348 67.561,58.348 C67.920,58.348 68.211,58.639 68.211,58.999 C68.211,59.360 67.920,59.652 67.561,59.652 ZM65.608,59.652 C65.249,59.652 64.958,59.360 64.958,58.999 C64.958,58.639 65.249,58.348 65.608,58.348 C65.968,58.348 66.259,58.639 66.259,58.999 C66.259,59.360 65.968,59.652 65.608,59.652 ZM63.309,59.652 C62.949,59.652 62.658,59.360 62.658,58.999 C62.658,58.639 62.949,58.348 63.309,58.348 C63.669,58.348 63.960,58.639 63.960,58.999 C63.960,59.360 63.669,59.652 63.309,59.652 ZM61.357,59.652 C60.997,59.652 60.706,59.360 60.706,58.999 C60.706,58.639 60.997,58.348 61.357,58.348 C61.717,58.348 62.008,58.639 62.008,58.999 C62.008,59.360 61.717,59.652 61.357,59.652 ZM59.405,59.652 C59.045,59.652 58.754,59.360 58.754,58.999 C58.754,58.639 59.045,58.348 59.405,58.348 C59.764,58.348 60.055,58.639 60.055,58.999 C60.055,59.360 59.764,59.652 59.405,59.652 ZM57.452,59.652 C57.093,59.652 56.802,59.360 56.802,58.999 C56.802,58.639 57.093,58.348 57.452,58.348 C57.812,58.348 58.103,58.639 58.103,58.999 C58.103,59.360 57.812,59.652 57.452,59.652 ZM55.500,59.652 C55.141,59.652 54.850,59.360 54.850,58.999 C54.850,58.639 55.141,58.348 55.500,58.348 C55.860,58.348 56.151,58.639 56.151,58.999 C56.151,59.360 55.860,59.652 55.500,59.652 ZM53.548,59.652 C53.188,59.652 52.897,59.360 52.897,58.999 C52.897,58.639 53.188,58.348 53.548,58.348 C53.908,58.348 54.199,58.639 54.199,58.999 C54.199,59.360 53.908,59.652 53.548,59.652 ZM51.596,59.652 C51.236,59.652 50.945,59.360 50.945,58.999 C50.945,58.639 51.236,58.348 51.596,58.348 C51.956,58.348 52.247,58.639 52.247,58.999 C52.247,59.360 51.956,59.652 51.596,59.652 ZM49.644,59.652 C49.284,59.652 48.993,59.360 48.993,58.999 C48.993,58.639 49.284,58.348 49.644,58.348 C50.003,58.348 50.294,58.639 50.294,58.999 C50.294,59.360 50.003,59.652 49.644,59.652 ZM47.648,59.652 C47.288,59.652 46.997,59.360 46.997,58.999 C46.997,58.639 47.288,58.348 47.648,58.348 C48.008,58.348 48.299,58.639 48.299,58.999 C48.299,59.360 48.008,59.652 47.648,59.652 ZM68.949,67.499 C68.397,67.499 67.951,67.052 67.951,66.499 C67.951,65.947 68.397,65.500 68.949,65.500 C69.500,65.500 69.947,65.947 69.947,66.499 C69.947,67.052 69.500,67.499 68.949,67.499 ZM68.949,64.499 C68.397,64.499 67.951,64.052 67.951,63.499 C67.951,62.947 68.397,62.499 68.949,62.499 C69.500,62.499 69.947,62.947 69.947,63.499 C69.947,64.052 69.500,64.499 68.949,64.499 ZM65.955,67.499 C65.404,67.499 64.958,67.052 64.958,66.499 C64.958,65.947 65.404,65.500 65.955,65.500 C66.507,65.500 66.953,65.947 66.953,66.499 C66.953,67.052 66.507,67.499 65.955,67.499 ZM65.955,64.499 C65.404,64.499 64.958,64.052 64.958,63.499 C64.958,62.947 65.404,62.499 65.955,62.499 C66.507,62.499 66.953,62.947 66.953,63.499 C66.953,64.052 66.507,64.499 65.955,64.499 ZM62.962,67.499 C62.411,67.499 61.964,67.052 61.964,66.499 C61.964,65.947 62.411,65.500 62.962,65.500 C63.513,65.500 63.960,65.947 63.960,66.499 C63.960,67.052 63.513,67.499 62.962,67.499 ZM62.962,64.499 C62.411,64.499 61.964,64.052 61.964,63.499 C61.964,62.947 62.411,62.499 62.962,62.499 C63.513,62.499 63.960,62.947 63.960,63.499 C63.960,64.052 63.513,64.499 62.962,64.499 ZM59.969,67.499 C59.417,67.499 58.971,67.052 58.971,66.499 C58.971,65.947 59.417,65.500 59.969,65.500 C60.520,65.500 60.966,65.947 60.966,66.499 C60.966,67.052 60.520,67.499 59.969,67.499 ZM59.969,64.499 C59.417,64.499 58.971,64.052 58.971,63.499 C58.971,62.947 59.417,62.499 59.969,62.499 C60.520,62.499 60.966,62.947 60.966,63.499 C60.966,64.052 60.520,64.499 59.969,64.499 ZM56.975,67.499 C56.424,67.499 55.977,67.052 55.977,66.499 C55.977,65.947 56.424,65.500 56.975,65.500 C57.527,65.500 57.973,65.947 57.973,66.499 C57.973,67.052 57.527,67.499 56.975,67.499 ZM56.975,64.499 C56.424,64.499 55.977,64.052 55.977,63.499 C55.977,62.947 56.424,62.499 56.975,62.499 C57.527,62.499 57.973,62.947 57.973,63.499 C57.973,64.052 57.527,64.499 56.975,64.499 ZM53.982,67.499 C53.430,67.499 52.984,67.052 52.984,66.499 C52.984,65.947 53.430,65.500 53.982,65.500 C54.533,65.500 54.980,65.947 54.980,66.499 C54.980,67.052 54.533,67.499 53.982,67.499 ZM53.982,64.499 C53.430,64.499 52.984,64.052 52.984,63.499 C52.984,62.947 53.430,62.499 53.982,62.499 C54.533,62.499 54.980,62.947 54.980,63.499 C54.980,64.052 54.533,64.499 53.982,64.499 ZM50.989,67.499 C50.437,67.499 49.991,67.052 49.991,66.499 C49.991,65.947 50.437,65.500 50.989,65.500 C51.540,65.500 51.986,65.947 51.986,66.499 C51.986,67.052 51.540,67.499 50.989,67.499 ZM50.989,64.499 C50.437,64.499 49.991,64.052 49.991,63.499 C49.991,62.947 50.437,62.499 50.989,62.499 C51.540,62.499 51.986,62.947 51.986,63.499 C51.986,64.052 51.540,64.499 50.989,64.499 ZM47.995,67.499 C47.444,67.499 46.997,67.052 46.997,66.499 C46.997,65.947 47.444,65.500 47.995,65.500 C48.547,65.500 48.993,65.947 48.993,66.499 C48.993,67.052 48.547,67.499 47.995,67.499 ZM47.995,64.499 C47.444,64.499 46.997,64.052 46.997,63.499 C46.997,62.947 47.444,62.499 47.995,62.499 C48.547,62.499 48.993,62.947 48.993,63.499 C48.993,64.052 48.547,64.499 47.995,64.499 Z"/>
</svg>