<svg 
 xmlns="http://www.w3.org/2000/svg"
 xmlns:xlink="http://www.w3.org/1999/xlink"
 width="110px" height="110px">
<defs>
<linearGradient id="PSgrad_0" x1="0%" x2="100%" y1="0%" y2="0%">
  <stop offset="0%" stop-color="rgb(249,222,17)" stop-opacity="1" />
  <stop offset="100%" stop-color="rgb(255,232,58)" stop-opacity="1" />
</linearGradient>

</defs>
<path fill-rule="evenodd"  fill="url(#PSgrad_0)"
 d="M55.000,-0.000 C85.376,-0.000 110.000,24.624 110.000,55.000 C110.000,85.375 85.376,110.000 55.000,110.000 C24.624,110.000 -0.000,85.375 -0.000,55.000 C-0.000,24.624 24.624,-0.000 55.000,-0.000 Z"/>
<path fill-rule="evenodd"  fill="rgb(88, 78, 56)"
 d="M69.144,53.494 L69.144,74.049 C69.596,74.147 69.941,74.528 69.941,75.005 L69.941,78.996 C69.941,79.546 69.490,79.993 68.934,79.993 L51.022,79.993 L46.995,79.993 L41.962,79.993 C41.406,79.993 40.955,79.546 40.955,78.996 L40.955,75.005 C40.955,74.454 41.406,74.007 41.962,74.007 L41.962,53.494 C41.962,52.130 43.288,51.063 44.982,51.063 L44.982,40.791 L42.171,40.791 C41.615,40.791 41.165,40.344 41.165,39.793 L41.165,30.985 C41.165,30.434 41.615,29.988 42.171,29.988 L68.934,29.988 C69.490,29.988 69.941,30.434 69.941,30.985 L69.941,39.793 C69.941,40.344 69.490,40.791 68.934,40.791 L66.124,40.791 L66.124,51.063 C67.817,51.063 69.144,52.130 69.144,53.494 ZM42.968,77.998 L46.995,77.998 L51.022,77.998 L67.928,77.998 L67.895,76.003 L42.968,76.003 L42.968,77.998 ZM67.928,38.795 L67.928,31.983 L43.178,31.983 L43.178,38.795 L47.519,38.795 L63.587,38.795 L67.928,38.795 ZM46.995,40.866 L46.995,51.063 L49.496,51.063 L64.110,51.063 L64.110,40.866 C63.998,40.828 63.823,40.791 63.587,40.791 L47.519,40.791 C47.283,40.791 47.108,40.828 46.995,40.866 ZM65.117,53.058 L45.989,53.058 L44.982,53.058 C44.332,53.058 43.975,53.386 43.975,53.494 L43.975,74.007 L47.583,74.007 L67.131,74.007 L67.131,53.494 C67.131,53.386 66.774,53.058 66.124,53.058 L65.117,53.058 ZM64.110,72.012 L46.995,72.012 C46.439,72.012 45.989,71.565 45.989,71.014 L45.989,56.144 C45.989,55.593 46.439,55.147 46.995,55.147 L64.110,55.147 C64.666,55.147 65.117,55.593 65.117,56.144 L65.117,71.014 C65.117,71.565 64.666,72.012 64.110,72.012 ZM63.104,57.142 L48.002,57.142 L48.002,70.017 L63.104,70.017 L63.104,57.142 ZM51.022,58.046 C51.578,58.046 52.029,58.492 52.029,59.043 C52.029,59.595 51.578,60.041 51.022,60.041 C50.466,60.041 50.016,59.595 50.016,59.043 C50.016,58.492 50.466,58.046 51.022,58.046 ZM51.022,61.039 C51.578,61.039 52.029,61.485 52.029,62.036 C52.029,62.588 51.578,63.034 51.022,63.034 C50.466,63.034 50.016,62.588 50.016,62.036 C50.016,61.485 50.466,61.039 51.022,61.039 ZM51.022,64.031 C51.578,64.031 52.029,64.478 52.029,65.029 C52.029,65.580 51.578,66.027 51.022,66.027 C50.466,66.027 50.016,65.580 50.016,65.029 C50.016,64.478 50.466,64.031 51.022,64.031 ZM51.022,67.024 C51.578,67.024 52.029,67.471 52.029,68.022 C52.029,68.573 51.578,69.019 51.022,69.019 C50.466,69.019 50.016,68.573 50.016,68.022 C50.016,67.471 50.466,67.024 51.022,67.024 ZM54.043,58.046 C54.599,58.046 55.049,58.492 55.049,59.043 C55.049,59.595 54.599,60.041 54.043,60.041 C53.487,60.041 53.036,59.595 53.036,59.043 C53.036,58.492 53.487,58.046 54.043,58.046 ZM54.043,61.039 C54.599,61.039 55.049,61.485 55.049,62.036 C55.049,62.588 54.599,63.034 54.043,63.034 C53.487,63.034 53.036,62.588 53.036,62.036 C53.036,61.485 53.487,61.039 54.043,61.039 ZM54.043,64.031 C54.599,64.031 55.049,64.478 55.049,65.029 C55.049,65.580 54.599,66.027 54.043,66.027 C53.487,66.027 53.036,65.580 53.036,65.029 C53.036,64.478 53.487,64.031 54.043,64.031 ZM54.043,67.024 C54.599,67.024 55.049,67.471 55.049,68.022 C55.049,68.573 54.599,69.019 54.043,69.019 C53.487,69.019 53.036,68.573 53.036,68.022 C53.036,67.471 53.487,67.024 54.043,67.024 ZM57.063,58.046 C57.619,58.046 58.070,58.492 58.070,59.043 C58.070,59.595 57.619,60.041 57.063,60.041 C56.507,60.041 56.056,59.595 56.056,59.043 C56.056,58.492 56.507,58.046 57.063,58.046 ZM57.063,61.039 C57.619,61.039 58.070,61.485 58.070,62.036 C58.070,62.588 57.619,63.034 57.063,63.034 C56.507,63.034 56.056,62.588 56.056,62.036 C56.056,61.485 56.507,61.039 57.063,61.039 ZM57.063,64.031 C57.619,64.031 58.070,64.478 58.070,65.029 C58.070,65.580 57.619,66.027 57.063,66.027 C56.507,66.027 56.056,65.580 56.056,65.029 C56.056,64.478 56.507,64.031 57.063,64.031 ZM57.063,67.024 C57.619,67.024 58.070,67.471 58.070,68.022 C58.070,68.573 57.619,69.019 57.063,69.019 C56.507,69.019 56.056,68.573 56.056,68.022 C56.056,67.471 56.507,67.024 57.063,67.024 ZM60.083,58.046 C60.639,58.046 61.090,58.492 61.090,59.043 C61.090,59.595 60.639,60.041 60.083,60.041 C59.527,60.041 59.077,59.595 59.077,59.043 C59.077,58.492 59.527,58.046 60.083,58.046 ZM60.083,61.039 C60.639,61.039 61.090,61.485 61.090,62.036 C61.090,62.588 60.639,63.034 60.083,63.034 C59.527,63.034 59.077,62.588 59.077,62.036 C59.077,61.485 59.527,61.039 60.083,61.039 ZM60.083,64.031 C60.639,64.031 61.090,64.478 61.090,65.029 C61.090,65.580 60.639,66.027 60.083,66.027 C59.527,66.027 59.077,65.580 59.077,65.029 C59.077,64.478 59.527,64.031 60.083,64.031 ZM60.083,67.024 C60.639,67.024 61.090,67.471 61.090,68.022 C61.090,68.573 60.639,69.019 60.083,69.019 C59.527,69.019 59.077,68.573 59.077,68.022 C59.077,67.471 59.527,67.024 60.083,67.024 ZM64.551,34.392 C65.107,34.392 65.558,34.838 65.558,35.390 C65.558,35.940 65.107,36.387 64.551,36.387 C63.995,36.387 63.544,35.940 63.544,35.390 C63.544,34.838 63.995,34.392 64.551,34.392 ZM61.531,36.387 C60.975,36.387 60.524,35.940 60.524,35.390 C60.524,34.838 60.975,34.392 61.531,34.392 C62.087,34.392 62.537,34.838 62.537,35.390 C62.537,35.940 62.087,36.387 61.531,36.387 ZM58.510,36.387 C57.954,36.387 57.504,35.940 57.504,35.390 C57.504,34.838 57.954,34.392 58.510,34.392 C59.066,34.392 59.517,34.838 59.517,35.390 C59.517,35.940 59.066,36.387 58.510,36.387 ZM55.049,36.387 C54.494,36.387 54.043,35.940 54.043,35.390 C54.043,34.838 54.494,34.392 55.049,34.392 C55.605,34.392 56.056,34.838 56.056,35.390 C56.056,35.940 55.605,36.387 55.049,36.387 ZM52.029,36.387 C51.473,36.387 51.022,35.940 51.022,35.390 C51.022,34.838 51.473,34.392 52.029,34.392 C52.585,34.392 53.036,34.838 53.036,35.390 C53.036,35.940 52.585,36.387 52.029,36.387 ZM49.009,36.387 C48.453,36.387 48.002,35.940 48.002,35.390 C48.002,34.838 48.453,34.392 49.009,34.392 C49.565,34.392 50.016,34.838 50.016,35.390 C50.016,35.940 49.565,36.387 49.009,36.387 ZM45.989,36.387 C45.433,36.387 44.982,35.940 44.982,35.390 C44.982,34.838 45.433,34.392 45.989,34.392 C46.545,34.392 46.995,34.838 46.995,35.390 C46.995,35.940 46.545,36.387 45.989,36.387 Z"/>
</svg>