<svg 
 xmlns="http://www.w3.org/2000/svg"
 xmlns:xlink="http://www.w3.org/1999/xlink"
 width="110px" height="110px">
<defs>
<linearGradient id="PSgrad_0" x1="0%" x2="100%" y1="0%" y2="0%">
  <stop offset="0%" stop-color="rgb(249,222,17)" stop-opacity="1" />
  <stop offset="100%" stop-color="rgb(255,232,58)" stop-opacity="1" />
</linearGradient>

</defs>
<path fill-rule="evenodd"  fill="url(#PSgrad_0)"
 d="M55.000,-0.000 C85.376,-0.000 110.000,24.624 110.000,55.000 C110.000,85.376 85.376,110.000 55.000,110.000 C24.624,110.000 -0.000,85.376 -0.000,55.000 C-0.000,24.624 24.624,-0.000 55.000,-0.000 Z"/>
<path fill-rule="evenodd"  fill="rgb(88, 78, 56)"
 d="M82.000,75.000 C82.553,75.000 83.000,75.448 83.000,76.000 C83.000,76.552 82.553,77.000 82.000,77.000 L73.000,77.000 C72.991,77.000 72.984,76.995 72.975,76.995 C72.675,77.219 72.344,77.398 72.000,77.553 L72.000,81.000 L82.000,81.000 C82.553,81.000 83.000,81.448 83.000,82.000 C83.000,82.552 82.553,83.000 82.000,83.000 L28.000,83.000 C27.448,83.000 27.000,82.552 27.000,82.000 C27.000,81.448 27.448,81.000 28.000,81.000 L38.000,81.000 L38.000,77.553 C37.656,77.398 37.325,77.219 37.025,76.995 C37.016,76.995 37.009,77.000 37.000,77.000 L28.000,77.000 C27.448,77.000 27.000,76.552 27.000,76.000 C27.000,75.448 27.448,75.000 28.000,75.000 L31.000,75.000 L31.000,71.000 L28.000,71.000 C27.448,71.000 27.000,70.552 27.000,70.000 C27.000,69.448 27.448,69.000 28.000,69.000 L35.000,69.000 L35.000,65.000 L28.000,65.000 C27.448,65.000 27.000,64.552 27.000,64.000 C27.000,63.448 27.448,63.000 28.000,63.000 L31.000,63.000 L31.000,59.000 L28.000,59.000 C27.448,59.000 27.000,58.552 27.000,58.000 C27.000,57.448 27.448,57.000 28.000,57.000 L35.000,57.000 L35.000,53.000 L28.000,53.000 C27.448,53.000 27.000,52.552 27.000,52.000 C27.000,51.448 27.448,51.000 28.000,51.000 L31.000,51.000 L31.000,47.000 L28.000,47.000 C27.448,47.000 27.000,46.552 27.000,46.000 C27.000,45.448 27.448,45.000 28.000,45.000 L35.000,45.000 L35.000,41.000 L28.000,41.000 C27.448,41.000 27.000,40.552 27.000,40.000 C27.000,39.448 27.448,39.000 28.000,39.000 L31.000,39.000 L31.000,35.000 L28.000,35.000 C27.448,35.000 27.000,34.552 27.000,34.000 C27.000,33.448 27.448,33.000 28.000,33.000 L37.000,33.000 C37.009,33.000 37.016,33.005 37.025,33.005 C37.325,32.781 37.656,32.602 38.000,32.447 L38.000,29.000 L28.000,29.000 C27.448,29.000 27.000,28.552 27.000,28.000 C27.000,27.448 27.448,27.000 28.000,27.000 L82.000,27.000 C82.553,27.000 83.000,27.448 83.000,28.000 C83.000,28.552 82.553,29.000 82.000,29.000 L72.000,29.000 L72.000,32.447 C72.344,32.602 72.675,32.781 72.975,33.005 C72.984,33.005 72.991,33.000 73.000,33.000 L82.000,33.000 C82.553,33.000 83.000,33.448 83.000,34.000 C83.000,34.552 82.553,35.000 82.000,35.000 L79.000,35.000 L79.000,39.000 L82.000,39.000 C82.553,39.000 83.000,39.448 83.000,40.000 C83.000,40.552 82.553,41.000 82.000,41.000 L75.000,41.000 L75.000,45.000 L82.000,45.000 C82.553,45.000 83.000,45.448 83.000,46.000 C83.000,46.552 82.553,47.000 82.000,47.000 L79.000,47.000 L79.000,51.000 L82.000,51.000 C82.553,51.000 83.000,51.448 83.000,52.000 C83.000,52.552 82.553,53.000 82.000,53.000 L75.000,53.000 L75.000,57.000 L82.000,57.000 C82.553,57.000 83.000,57.448 83.000,58.000 C83.000,58.552 82.553,59.000 82.000,59.000 L79.000,59.000 L79.000,63.000 L82.000,63.000 C82.553,63.000 83.000,63.448 83.000,64.000 C83.000,64.552 82.553,65.000 82.000,65.000 L75.000,65.000 L75.000,69.000 L82.000,69.000 C82.553,69.000 83.000,69.448 83.000,70.000 C83.000,70.552 82.553,71.000 82.000,71.000 L79.000,71.000 L79.000,75.000 L82.000,75.000 ZM33.000,71.000 L33.000,75.000 L35.424,75.000 C35.154,74.386 35.000,73.712 35.000,73.000 L35.000,71.000 L33.000,71.000 ZM33.000,59.000 L33.000,63.000 L35.000,63.000 L35.000,59.000 L33.000,59.000 ZM33.000,47.000 L33.000,51.000 L35.000,51.000 L35.000,47.000 L33.000,47.000 ZM33.000,35.000 L33.000,39.000 L35.000,39.000 L35.000,37.000 C35.000,36.288 35.154,35.613 35.424,35.000 L33.000,35.000 ZM61.000,81.000 L70.000,81.000 L70.000,78.000 L61.000,78.000 L61.000,81.000 ZM51.000,81.000 L59.000,81.000 L59.000,78.000 L51.000,78.000 L51.000,81.000 ZM40.000,81.000 L49.000,81.000 L49.000,78.000 L40.000,78.000 L40.000,81.000 ZM49.000,29.000 L40.000,29.000 L40.000,32.000 L49.000,32.000 L49.000,29.000 ZM59.000,29.000 L51.000,29.000 L51.000,32.000 L59.000,32.000 L59.000,29.000 ZM70.000,29.000 L61.000,29.000 L61.000,32.000 L70.000,32.000 L70.000,29.000 ZM73.000,37.000 C73.000,35.346 71.654,34.000 70.000,34.000 L40.000,34.000 C38.346,34.000 37.000,35.346 37.000,37.000 L37.000,73.000 C37.000,74.654 38.346,76.000 40.000,76.000 L70.000,76.000 C71.654,76.000 73.000,74.654 73.000,73.000 L73.000,37.000 ZM77.000,39.000 L77.000,35.000 L74.576,35.000 C74.845,35.613 75.000,36.288 75.000,37.000 L75.000,39.000 L77.000,39.000 ZM77.000,51.000 L77.000,47.000 L75.000,47.000 L75.000,51.000 L77.000,51.000 ZM77.000,63.000 L77.000,59.000 L75.000,59.000 L75.000,63.000 L77.000,63.000 ZM77.000,71.000 L75.000,71.000 L75.000,73.000 C75.000,73.712 74.845,74.386 74.576,75.000 L77.000,75.000 L77.000,71.000 ZM70.000,74.000 L40.000,74.000 C39.448,74.000 39.000,73.552 39.000,73.000 L39.000,37.000 C39.000,36.448 39.448,36.000 40.000,36.000 L70.000,36.000 C70.553,36.000 71.000,36.448 71.000,37.000 L71.000,73.000 C71.000,73.552 70.553,74.000 70.000,74.000 ZM69.000,38.000 L41.000,38.000 L41.000,72.000 L69.000,72.000 L69.000,38.000 ZM46.000,42.000 C46.552,42.000 47.000,42.447 47.000,43.000 C47.000,43.553 46.552,44.000 46.000,44.000 C45.448,44.000 45.000,43.553 45.000,43.000 C45.000,42.447 45.448,42.000 46.000,42.000 ZM46.000,45.000 C46.552,45.000 47.000,45.447 47.000,46.000 C47.000,46.553 46.552,47.000 46.000,47.000 C45.448,47.000 45.000,46.553 45.000,46.000 C45.000,45.447 45.448,45.000 46.000,45.000 ZM46.000,48.000 C46.552,48.000 47.000,48.447 47.000,49.000 C47.000,49.553 46.552,50.000 46.000,50.000 C45.448,50.000 45.000,49.553 45.000,49.000 C45.000,48.447 45.448,48.000 46.000,48.000 ZM46.000,51.000 C46.552,51.000 47.000,51.447 47.000,52.000 C47.000,52.553 46.552,53.000 46.000,53.000 C45.448,53.000 45.000,52.553 45.000,52.000 C45.000,51.447 45.448,51.000 46.000,51.000 ZM46.000,54.000 C46.552,54.000 47.000,54.447 47.000,55.000 C47.000,55.553 46.552,56.000 46.000,56.000 C45.448,56.000 45.000,55.553 45.000,55.000 C45.000,54.447 45.448,54.000 46.000,54.000 ZM46.000,57.000 C46.552,57.000 47.000,57.447 47.000,58.000 C47.000,58.553 46.552,59.000 46.000,59.000 C45.448,59.000 45.000,58.553 45.000,58.000 C45.000,57.447 45.448,57.000 46.000,57.000 ZM46.000,60.000 C46.552,60.000 47.000,60.447 47.000,61.000 C47.000,61.553 46.552,62.000 46.000,62.000 C45.448,62.000 45.000,61.553 45.000,61.000 C45.000,60.447 45.448,60.000 46.000,60.000 ZM46.000,63.000 C46.552,63.000 47.000,63.447 47.000,64.000 C47.000,64.553 46.552,65.000 46.000,65.000 C45.448,65.000 45.000,64.553 45.000,64.000 C45.000,63.447 45.448,63.000 46.000,63.000 ZM46.000,66.000 C46.552,66.000 47.000,66.447 47.000,67.000 C47.000,67.553 46.552,68.000 46.000,68.000 C45.448,68.000 45.000,67.553 45.000,67.000 C45.000,66.447 45.448,66.000 46.000,66.000 ZM49.000,42.000 C49.552,42.000 50.000,42.447 50.000,43.000 C50.000,43.553 49.552,44.000 49.000,44.000 C48.448,44.000 48.000,43.553 48.000,43.000 C48.000,42.447 48.448,42.000 49.000,42.000 ZM49.000,45.000 C49.552,45.000 50.000,45.447 50.000,46.000 C50.000,46.553 49.552,47.000 49.000,47.000 C48.448,47.000 48.000,46.553 48.000,46.000 C48.000,45.447 48.448,45.000 49.000,45.000 ZM49.000,48.000 C49.552,48.000 50.000,48.447 50.000,49.000 C50.000,49.553 49.552,50.000 49.000,50.000 C48.448,50.000 48.000,49.553 48.000,49.000 C48.000,48.447 48.448,48.000 49.000,48.000 ZM49.000,51.000 C49.552,51.000 50.000,51.447 50.000,52.000 C50.000,52.553 49.552,53.000 49.000,53.000 C48.448,53.000 48.000,52.553 48.000,52.000 C48.000,51.447 48.448,51.000 49.000,51.000 ZM49.000,54.000 C49.552,54.000 50.000,54.447 50.000,55.000 C50.000,55.553 49.552,56.000 49.000,56.000 C48.448,56.000 48.000,55.553 48.000,55.000 C48.000,54.447 48.448,54.000 49.000,54.000 ZM49.000,57.000 C49.552,57.000 50.000,57.447 50.000,58.000 C50.000,58.553 49.552,59.000 49.000,59.000 C48.448,59.000 48.000,58.553 48.000,58.000 C48.000,57.447 48.448,57.000 49.000,57.000 ZM49.000,60.000 C49.552,60.000 50.000,60.447 50.000,61.000 C50.000,61.553 49.552,62.000 49.000,62.000 C48.448,62.000 48.000,61.553 48.000,61.000 C48.000,60.447 48.448,60.000 49.000,60.000 ZM49.000,63.000 C49.552,63.000 50.000,63.447 50.000,64.000 C50.000,64.553 49.552,65.000 49.000,65.000 C48.448,65.000 48.000,64.553 48.000,64.000 C48.000,63.447 48.448,63.000 49.000,63.000 ZM49.000,66.000 C49.552,66.000 50.000,66.447 50.000,67.000 C50.000,67.553 49.552,68.000 49.000,68.000 C48.448,68.000 48.000,67.553 48.000,67.000 C48.000,66.447 48.448,66.000 49.000,66.000 ZM52.000,42.000 C52.552,42.000 53.000,42.447 53.000,43.000 C53.000,43.553 52.552,44.000 52.000,44.000 C51.448,44.000 51.000,43.553 51.000,43.000 C51.000,42.447 51.448,42.000 52.000,42.000 ZM52.000,45.000 C52.552,45.000 53.000,45.447 53.000,46.000 C53.000,46.553 52.552,47.000 52.000,47.000 C51.448,47.000 51.000,46.553 51.000,46.000 C51.000,45.447 51.448,45.000 52.000,45.000 ZM52.000,48.000 C52.552,48.000 53.000,48.447 53.000,49.000 C53.000,49.553 52.552,50.000 52.000,50.000 C51.448,50.000 51.000,49.553 51.000,49.000 C51.000,48.447 51.448,48.000 52.000,48.000 ZM52.000,51.000 C52.552,51.000 53.000,51.447 53.000,52.000 C53.000,52.553 52.552,53.000 52.000,53.000 C51.448,53.000 51.000,52.553 51.000,52.000 C51.000,51.447 51.448,51.000 52.000,51.000 ZM52.000,54.000 C52.552,54.000 53.000,54.447 53.000,55.000 C53.000,55.553 52.552,56.000 52.000,56.000 C51.448,56.000 51.000,55.553 51.000,55.000 C51.000,54.447 51.448,54.000 52.000,54.000 ZM52.000,57.000 C52.552,57.000 53.000,57.447 53.000,58.000 C53.000,58.553 52.552,59.000 52.000,59.000 C51.448,59.000 51.000,58.553 51.000,58.000 C51.000,57.447 51.448,57.000 52.000,57.000 ZM52.000,60.000 C52.552,60.000 53.000,60.447 53.000,61.000 C53.000,61.553 52.552,62.000 52.000,62.000 C51.448,62.000 51.000,61.553 51.000,61.000 C51.000,60.447 51.448,60.000 52.000,60.000 ZM52.000,63.000 C52.552,63.000 53.000,63.447 53.000,64.000 C53.000,64.553 52.552,65.000 52.000,65.000 C51.448,65.000 51.000,64.553 51.000,64.000 C51.000,63.447 51.448,63.000 52.000,63.000 ZM52.000,66.000 C52.552,66.000 53.000,66.447 53.000,67.000 C53.000,67.553 52.552,68.000 52.000,68.000 C51.448,68.000 51.000,67.553 51.000,67.000 C51.000,66.447 51.448,66.000 52.000,66.000 ZM55.000,42.000 C55.552,42.000 56.000,42.447 56.000,43.000 C56.000,43.553 55.552,44.000 55.000,44.000 C54.448,44.000 54.000,43.553 54.000,43.000 C54.000,42.447 54.448,42.000 55.000,42.000 ZM55.000,45.000 C55.552,45.000 56.000,45.447 56.000,46.000 C56.000,46.553 55.552,47.000 55.000,47.000 C54.448,47.000 54.000,46.553 54.000,46.000 C54.000,45.447 54.448,45.000 55.000,45.000 ZM55.000,48.000 C55.552,48.000 56.000,48.447 56.000,49.000 C56.000,49.553 55.552,50.000 55.000,50.000 C54.448,50.000 54.000,49.553 54.000,49.000 C54.000,48.447 54.448,48.000 55.000,48.000 ZM55.000,51.000 C55.552,51.000 56.000,51.447 56.000,52.000 C56.000,52.553 55.552,53.000 55.000,53.000 C54.448,53.000 54.000,52.553 54.000,52.000 C54.000,51.447 54.448,51.000 55.000,51.000 ZM55.000,54.000 C55.552,54.000 56.000,54.447 56.000,55.000 C56.000,55.553 55.552,56.000 55.000,56.000 C54.448,56.000 54.000,55.553 54.000,55.000 C54.000,54.447 54.448,54.000 55.000,54.000 ZM55.000,57.000 C55.552,57.000 56.000,57.447 56.000,58.000 C56.000,58.553 55.552,59.000 55.000,59.000 C54.448,59.000 54.000,58.553 54.000,58.000 C54.000,57.447 54.448,57.000 55.000,57.000 ZM55.000,60.000 C55.552,60.000 56.000,60.447 56.000,61.000 C56.000,61.553 55.552,62.000 55.000,62.000 C54.448,62.000 54.000,61.553 54.000,61.000 C54.000,60.447 54.448,60.000 55.000,60.000 ZM55.000,63.000 C55.552,63.000 56.000,63.447 56.000,64.000 C56.000,64.553 55.552,65.000 55.000,65.000 C54.448,65.000 54.000,64.553 54.000,64.000 C54.000,63.447 54.448,63.000 55.000,63.000 ZM55.000,66.000 C55.552,66.000 56.000,66.447 56.000,67.000 C56.000,67.553 55.552,68.000 55.000,68.000 C54.448,68.000 54.000,67.553 54.000,67.000 C54.000,66.447 54.448,66.000 55.000,66.000 ZM58.000,42.000 C58.553,42.000 59.000,42.447 59.000,43.000 C59.000,43.553 58.553,44.000 58.000,44.000 C57.447,44.000 57.000,43.553 57.000,43.000 C57.000,42.447 57.447,42.000 58.000,42.000 ZM58.000,45.000 C58.553,45.000 59.000,45.447 59.000,46.000 C59.000,46.553 58.553,47.000 58.000,47.000 C57.447,47.000 57.000,46.553 57.000,46.000 C57.000,45.447 57.447,45.000 58.000,45.000 ZM58.000,48.000 C58.553,48.000 59.000,48.447 59.000,49.000 C59.000,49.553 58.553,50.000 58.000,50.000 C57.447,50.000 57.000,49.553 57.000,49.000 C57.000,48.447 57.447,48.000 58.000,48.000 ZM58.000,51.000 C58.553,51.000 59.000,51.447 59.000,52.000 C59.000,52.553 58.553,53.000 58.000,53.000 C57.447,53.000 57.000,52.553 57.000,52.000 C57.000,51.447 57.447,51.000 58.000,51.000 ZM58.000,54.000 C58.553,54.000 59.000,54.447 59.000,55.000 C59.000,55.553 58.553,56.000 58.000,56.000 C57.447,56.000 57.000,55.553 57.000,55.000 C57.000,54.447 57.447,54.000 58.000,54.000 ZM58.000,57.000 C58.553,57.000 59.000,57.447 59.000,58.000 C59.000,58.553 58.553,59.000 58.000,59.000 C57.447,59.000 57.000,58.553 57.000,58.000 C57.000,57.447 57.447,57.000 58.000,57.000 ZM58.000,60.000 C58.553,60.000 59.000,60.447 59.000,61.000 C59.000,61.553 58.553,62.000 58.000,62.000 C57.447,62.000 57.000,61.553 57.000,61.000 C57.000,60.447 57.447,60.000 58.000,60.000 ZM58.000,63.000 C58.553,63.000 59.000,63.447 59.000,64.000 C59.000,64.553 58.553,65.000 58.000,65.000 C57.447,65.000 57.000,64.553 57.000,64.000 C57.000,63.447 57.447,63.000 58.000,63.000 ZM58.000,66.000 C58.553,66.000 59.000,66.447 59.000,67.000 C59.000,67.553 58.553,68.000 58.000,68.000 C57.447,68.000 57.000,67.553 57.000,67.000 C57.000,66.447 57.447,66.000 58.000,66.000 ZM61.000,42.000 C61.553,42.000 62.000,42.447 62.000,43.000 C62.000,43.553 61.553,44.000 61.000,44.000 C60.447,44.000 60.000,43.553 60.000,43.000 C60.000,42.447 60.447,42.000 61.000,42.000 ZM61.000,45.000 C61.553,45.000 62.000,45.447 62.000,46.000 C62.000,46.553 61.553,47.000 61.000,47.000 C60.447,47.000 60.000,46.553 60.000,46.000 C60.000,45.447 60.447,45.000 61.000,45.000 ZM61.000,48.000 C61.553,48.000 62.000,48.447 62.000,49.000 C62.000,49.553 61.553,50.000 61.000,50.000 C60.447,50.000 60.000,49.553 60.000,49.000 C60.000,48.447 60.447,48.000 61.000,48.000 ZM61.000,51.000 C61.553,51.000 62.000,51.447 62.000,52.000 C62.000,52.553 61.553,53.000 61.000,53.000 C60.447,53.000 60.000,52.553 60.000,52.000 C60.000,51.447 60.447,51.000 61.000,51.000 ZM61.000,54.000 C61.553,54.000 62.000,54.447 62.000,55.000 C62.000,55.553 61.553,56.000 61.000,56.000 C60.447,56.000 60.000,55.553 60.000,55.000 C60.000,54.447 60.447,54.000 61.000,54.000 ZM61.000,57.000 C61.553,57.000 62.000,57.447 62.000,58.000 C62.000,58.553 61.553,59.000 61.000,59.000 C60.447,59.000 60.000,58.553 60.000,58.000 C60.000,57.447 60.447,57.000 61.000,57.000 ZM61.000,60.000 C61.553,60.000 62.000,60.447 62.000,61.000 C62.000,61.553 61.553,62.000 61.000,62.000 C60.447,62.000 60.000,61.553 60.000,61.000 C60.000,60.447 60.447,60.000 61.000,60.000 ZM61.000,63.000 C61.553,63.000 62.000,63.447 62.000,64.000 C62.000,64.553 61.553,65.000 61.000,65.000 C60.447,65.000 60.000,64.553 60.000,64.000 C60.000,63.447 60.447,63.000 61.000,63.000 ZM61.000,66.000 C61.553,66.000 62.000,66.447 62.000,67.000 C62.000,67.553 61.553,68.000 61.000,68.000 C60.447,68.000 60.000,67.553 60.000,67.000 C60.000,66.447 60.447,66.000 61.000,66.000 ZM64.000,42.000 C64.553,42.000 65.000,42.447 65.000,43.000 C65.000,43.553 64.553,44.000 64.000,44.000 C63.447,44.000 63.000,43.553 63.000,43.000 C63.000,42.447 63.447,42.000 64.000,42.000 ZM64.000,45.000 C64.553,45.000 65.000,45.447 65.000,46.000 C65.000,46.553 64.553,47.000 64.000,47.000 C63.447,47.000 63.000,46.553 63.000,46.000 C63.000,45.447 63.447,45.000 64.000,45.000 ZM64.000,48.000 C64.553,48.000 65.000,48.447 65.000,49.000 C65.000,49.553 64.553,50.000 64.000,50.000 C63.447,50.000 63.000,49.553 63.000,49.000 C63.000,48.447 63.447,48.000 64.000,48.000 ZM64.000,51.000 C64.553,51.000 65.000,51.447 65.000,52.000 C65.000,52.553 64.553,53.000 64.000,53.000 C63.447,53.000 63.000,52.553 63.000,52.000 C63.000,51.447 63.447,51.000 64.000,51.000 ZM64.000,54.000 C64.553,54.000 65.000,54.447 65.000,55.000 C65.000,55.553 64.553,56.000 64.000,56.000 C63.447,56.000 63.000,55.553 63.000,55.000 C63.000,54.447 63.447,54.000 64.000,54.000 ZM64.000,57.000 C64.553,57.000 65.000,57.447 65.000,58.000 C65.000,58.553 64.553,59.000 64.000,59.000 C63.447,59.000 63.000,58.553 63.000,58.000 C63.000,57.447 63.447,57.000 64.000,57.000 ZM64.000,60.000 C64.553,60.000 65.000,60.447 65.000,61.000 C65.000,61.553 64.553,62.000 64.000,62.000 C63.447,62.000 63.000,61.553 63.000,61.000 C63.000,60.447 63.447,60.000 64.000,60.000 ZM64.000,63.000 C64.553,63.000 65.000,63.447 65.000,64.000 C65.000,64.553 64.553,65.000 64.000,65.000 C63.447,65.000 63.000,64.553 63.000,64.000 C63.000,63.447 63.447,63.000 64.000,63.000 ZM64.000,66.000 C64.553,66.000 65.000,66.447 65.000,67.000 C65.000,67.553 64.553,68.000 64.000,68.000 C63.447,68.000 63.000,67.553 63.000,67.000 C63.000,66.447 63.447,66.000 64.000,66.000 Z"/>
</svg>