<svg 
 xmlns="http://www.w3.org/2000/svg"
 xmlns:xlink="http://www.w3.org/1999/xlink"
 width="110px" height="110px">
<defs>
<linearGradient id="PSgrad_0" x1="0%" x2="100%" y1="0%" y2="0%">
  <stop offset="0%" stop-color="rgb(249,222,17)" stop-opacity="1" />
  <stop offset="100%" stop-color="rgb(255,232,58)" stop-opacity="1" />
</linearGradient>

</defs>
<path fill-rule="evenodd"  fill="url(#PSgrad_0)"
 d="M55.000,-0.000 C85.376,-0.000 110.000,24.624 110.000,55.000 C110.000,85.375 85.376,110.000 55.000,110.000 C24.624,110.000 -0.000,85.375 -0.000,55.000 C-0.000,24.624 24.624,-0.000 55.000,-0.000 Z"/>
<path fill-rule="evenodd"  fill="rgb(88, 78, 56)"
 d="M79.000,41.999 C77.960,41.999 77.019,41.590 76.307,40.937 C76.209,40.970 76.109,40.999 76.000,40.999 L71.000,40.999 L71.000,46.999 L78.000,46.999 C78.553,46.999 79.000,47.448 79.000,47.999 L79.000,67.999 C79.000,68.552 78.553,68.999 78.000,68.999 L38.000,68.999 C37.447,68.999 37.000,68.552 37.000,67.999 L37.000,47.999 C37.000,47.448 37.447,46.999 38.000,46.999 L45.000,46.999 L45.000,40.999 L33.000,40.999 L33.000,74.999 C33.000,77.756 30.757,79.999 28.000,79.999 C27.447,79.999 27.000,79.552 27.000,78.999 L27.000,31.000 C27.000,30.447 27.447,29.999 28.000,29.999 C30.757,29.999 33.000,32.243 33.000,35.000 L76.000,35.000 C76.109,35.000 76.209,35.029 76.307,35.062 C77.019,34.408 77.959,33.999 79.000,33.999 C81.206,33.999 83.000,35.793 83.000,37.999 C83.000,40.205 81.206,41.999 79.000,41.999 ZM31.000,35.000 C31.000,33.696 30.164,32.583 29.000,32.171 L29.000,77.828 C30.164,77.415 31.000,76.303 31.000,74.999 L31.000,35.000 ZM45.000,36.999 L33.000,36.999 L33.000,38.999 L45.000,38.999 L45.000,36.999 ZM39.000,48.999 L39.000,67.000 L77.000,67.000 L77.000,48.999 L39.000,48.999 ZM69.000,36.999 L47.000,36.999 L47.000,38.999 L69.000,38.999 L69.000,36.999 ZM69.000,40.999 L47.000,40.999 L47.000,46.999 L69.000,46.999 L69.000,40.999 ZM75.142,36.999 L71.000,36.999 L71.000,38.999 L75.142,38.999 C75.058,38.678 75.000,38.346 75.000,37.999 C75.000,37.652 75.058,37.321 75.142,36.999 ZM79.000,35.999 C77.897,35.999 77.000,36.896 77.000,37.999 C77.000,39.102 77.897,39.999 79.000,39.999 C80.102,39.999 81.000,39.102 81.000,37.999 C81.000,36.896 80.102,35.999 79.000,35.999 ZM71.000,64.000 C70.447,64.000 70.000,63.552 70.000,63.000 C70.000,62.447 70.447,62.000 71.000,62.000 C71.553,62.000 72.000,62.447 72.000,63.000 C72.000,63.552 71.553,64.000 71.000,64.000 ZM71.000,61.000 C70.447,61.000 70.000,60.552 70.000,60.000 C70.000,59.447 70.447,58.999 71.000,58.999 C71.553,58.999 72.000,59.447 72.000,60.000 C72.000,60.552 71.553,61.000 71.000,61.000 ZM71.000,57.999 C70.447,57.999 70.000,57.552 70.000,57.000 C70.000,56.447 70.447,56.000 71.000,56.000 C71.553,56.000 72.000,56.447 72.000,57.000 C72.000,57.552 71.553,57.999 71.000,57.999 ZM71.000,54.999 C70.447,54.999 70.000,54.552 70.000,53.999 C70.000,53.447 70.447,53.000 71.000,53.000 C71.553,53.000 72.000,53.447 72.000,53.999 C72.000,54.552 71.553,54.999 71.000,54.999 ZM68.000,64.000 C67.447,64.000 67.000,63.552 67.000,63.000 C67.000,62.447 67.447,62.000 68.000,62.000 C68.553,62.000 69.000,62.447 69.000,63.000 C69.000,63.552 68.553,64.000 68.000,64.000 ZM68.000,61.000 C67.447,61.000 67.000,60.552 67.000,60.000 C67.000,59.447 67.447,58.999 68.000,58.999 C68.553,58.999 69.000,59.447 69.000,60.000 C69.000,60.552 68.553,61.000 68.000,61.000 ZM68.000,57.999 C67.447,57.999 67.000,57.552 67.000,57.000 C67.000,56.447 67.447,56.000 68.000,56.000 C68.553,56.000 69.000,56.447 69.000,57.000 C69.000,57.552 68.553,57.999 68.000,57.999 ZM68.000,54.999 C67.447,54.999 67.000,54.552 67.000,53.999 C67.000,53.447 67.447,53.000 68.000,53.000 C68.553,53.000 69.000,53.447 69.000,53.999 C69.000,54.552 68.553,54.999 68.000,54.999 ZM65.000,64.000 C64.447,64.000 64.000,63.552 64.000,63.000 C64.000,62.447 64.447,62.000 65.000,62.000 C65.553,62.000 66.000,62.447 66.000,63.000 C66.000,63.552 65.553,64.000 65.000,64.000 ZM65.000,61.000 C64.447,61.000 64.000,60.552 64.000,60.000 C64.000,59.447 64.447,58.999 65.000,58.999 C65.553,58.999 66.000,59.447 66.000,60.000 C66.000,60.552 65.553,61.000 65.000,61.000 ZM65.000,57.999 C64.447,57.999 64.000,57.552 64.000,57.000 C64.000,56.447 64.447,56.000 65.000,56.000 C65.553,56.000 66.000,56.447 66.000,57.000 C66.000,57.552 65.553,57.999 65.000,57.999 ZM65.000,54.999 C64.447,54.999 64.000,54.552 64.000,53.999 C64.000,53.447 64.447,53.000 65.000,53.000 C65.553,53.000 66.000,53.447 66.000,53.999 C66.000,54.552 65.553,54.999 65.000,54.999 ZM62.000,64.000 C61.447,64.000 61.000,63.552 61.000,63.000 C61.000,62.447 61.447,62.000 62.000,62.000 C62.553,62.000 63.000,62.447 63.000,63.000 C63.000,63.552 62.553,64.000 62.000,64.000 ZM62.000,61.000 C61.447,61.000 61.000,60.552 61.000,60.000 C61.000,59.447 61.447,58.999 62.000,58.999 C62.553,58.999 63.000,59.447 63.000,60.000 C63.000,60.552 62.553,61.000 62.000,61.000 ZM62.000,57.999 C61.447,57.999 61.000,57.552 61.000,57.000 C61.000,56.447 61.447,56.000 62.000,56.000 C62.553,56.000 63.000,56.447 63.000,57.000 C63.000,57.552 62.553,57.999 62.000,57.999 ZM62.000,54.999 C61.447,54.999 61.000,54.552 61.000,53.999 C61.000,53.447 61.447,53.000 62.000,53.000 C62.553,53.000 63.000,53.447 63.000,53.999 C63.000,54.552 62.553,54.999 62.000,54.999 ZM59.000,64.000 C58.447,64.000 58.000,63.552 58.000,63.000 C58.000,62.447 58.447,62.000 59.000,62.000 C59.553,62.000 60.000,62.447 60.000,63.000 C60.000,63.552 59.553,64.000 59.000,64.000 ZM59.000,61.000 C58.447,61.000 58.000,60.552 58.000,60.000 C58.000,59.447 58.447,58.999 59.000,58.999 C59.553,58.999 60.000,59.447 60.000,60.000 C60.000,60.552 59.553,61.000 59.000,61.000 ZM59.000,57.999 C58.447,57.999 58.000,57.552 58.000,57.000 C58.000,56.447 58.447,56.000 59.000,56.000 C59.553,56.000 60.000,56.447 60.000,57.000 C60.000,57.552 59.553,57.999 59.000,57.999 ZM59.000,54.999 C58.447,54.999 58.000,54.552 58.000,53.999 C58.000,53.447 58.447,53.000 59.000,53.000 C59.553,53.000 60.000,53.447 60.000,53.999 C60.000,54.552 59.553,54.999 59.000,54.999 ZM56.000,64.000 C55.447,64.000 55.000,63.552 55.000,63.000 C55.000,62.447 55.447,62.000 56.000,62.000 C56.553,62.000 57.000,62.447 57.000,63.000 C57.000,63.552 56.553,64.000 56.000,64.000 ZM56.000,61.000 C55.447,61.000 55.000,60.552 55.000,60.000 C55.000,59.447 55.447,58.999 56.000,58.999 C56.553,58.999 57.000,59.447 57.000,60.000 C57.000,60.552 56.553,61.000 56.000,61.000 ZM56.000,57.999 C55.447,57.999 55.000,57.552 55.000,57.000 C55.000,56.447 55.447,56.000 56.000,56.000 C56.553,56.000 57.000,56.447 57.000,57.000 C57.000,57.552 56.553,57.999 56.000,57.999 ZM56.000,54.999 C55.447,54.999 55.000,54.552 55.000,53.999 C55.000,53.447 55.447,53.000 56.000,53.000 C56.553,53.000 57.000,53.447 57.000,53.999 C57.000,54.552 56.553,54.999 56.000,54.999 ZM53.000,64.000 C52.447,64.000 52.000,63.552 52.000,63.000 C52.000,62.447 52.447,62.000 53.000,62.000 C53.553,62.000 54.000,62.447 54.000,63.000 C54.000,63.552 53.553,64.000 53.000,64.000 ZM53.000,61.000 C52.447,61.000 52.000,60.552 52.000,60.000 C52.000,59.447 52.447,58.999 53.000,58.999 C53.553,58.999 54.000,59.447 54.000,60.000 C54.000,60.552 53.553,61.000 53.000,61.000 ZM53.000,57.999 C52.447,57.999 52.000,57.552 52.000,57.000 C52.000,56.447 52.447,56.000 53.000,56.000 C53.553,56.000 54.000,56.447 54.000,57.000 C54.000,57.552 53.553,57.999 53.000,57.999 ZM53.000,54.999 C52.447,54.999 52.000,54.552 52.000,53.999 C52.000,53.447 52.447,53.000 53.000,53.000 C53.553,53.000 54.000,53.447 54.000,53.999 C54.000,54.552 53.553,54.999 53.000,54.999 ZM50.000,64.000 C49.447,64.000 49.000,63.552 49.000,63.000 C49.000,62.447 49.447,62.000 50.000,62.000 C50.553,62.000 51.000,62.447 51.000,63.000 C51.000,63.552 50.553,64.000 50.000,64.000 ZM50.000,61.000 C49.447,61.000 49.000,60.552 49.000,60.000 C49.000,59.447 49.447,58.999 50.000,58.999 C50.553,58.999 51.000,59.447 51.000,60.000 C51.000,60.552 50.553,61.000 50.000,61.000 ZM50.000,57.999 C49.447,57.999 49.000,57.552 49.000,57.000 C49.000,56.447 49.447,56.000 50.000,56.000 C50.553,56.000 51.000,56.447 51.000,57.000 C51.000,57.552 50.553,57.999 50.000,57.999 ZM50.000,54.999 C49.447,54.999 49.000,54.552 49.000,53.999 C49.000,53.447 49.447,53.000 50.000,53.000 C50.553,53.000 51.000,53.447 51.000,53.999 C51.000,54.552 50.553,54.999 50.000,54.999 ZM47.000,64.000 C46.447,64.000 46.000,63.552 46.000,63.000 C46.000,62.447 46.447,62.000 47.000,62.000 C47.553,62.000 48.000,62.447 48.000,63.000 C48.000,63.552 47.553,64.000 47.000,64.000 ZM47.000,61.000 C46.447,61.000 46.000,60.552 46.000,60.000 C46.000,59.447 46.447,58.999 47.000,58.999 C47.553,58.999 48.000,59.447 48.000,60.000 C48.000,60.552 47.553,61.000 47.000,61.000 ZM47.000,57.999 C46.447,57.999 46.000,57.552 46.000,57.000 C46.000,56.447 46.447,56.000 47.000,56.000 C47.553,56.000 48.000,56.447 48.000,57.000 C48.000,57.552 47.553,57.999 47.000,57.999 ZM47.000,54.999 C46.447,54.999 46.000,54.552 46.000,53.999 C46.000,53.447 46.447,53.000 47.000,53.000 C47.553,53.000 48.000,53.447 48.000,53.999 C48.000,54.552 47.553,54.999 47.000,54.999 ZM44.000,64.000 C43.447,64.000 43.000,63.552 43.000,63.000 C43.000,62.447 43.447,62.000 44.000,62.000 C44.553,62.000 45.000,62.447 45.000,63.000 C45.000,63.552 44.553,64.000 44.000,64.000 ZM44.000,61.000 C43.447,61.000 43.000,60.552 43.000,60.000 C43.000,59.447 43.447,58.999 44.000,58.999 C44.553,58.999 45.000,59.447 45.000,60.000 C45.000,60.552 44.553,61.000 44.000,61.000 ZM44.000,57.999 C43.447,57.999 43.000,57.552 43.000,57.000 C43.000,56.447 43.447,56.000 44.000,56.000 C44.553,56.000 45.000,56.447 45.000,57.000 C45.000,57.552 44.553,57.999 44.000,57.999 ZM44.000,54.999 C43.447,54.999 43.000,54.552 43.000,53.999 C43.000,53.447 43.447,53.000 44.000,53.000 C44.553,53.000 45.000,53.447 45.000,53.999 C45.000,54.552 44.553,54.999 44.000,54.999 Z"/>
</svg>