<svg 
 xmlns="http://www.w3.org/2000/svg"
 xmlns:xlink="http://www.w3.org/1999/xlink"
 width="110px" height="110px">
<defs>
<linearGradient id="PSgrad_0" x1="0%" x2="100%" y1="0%" y2="0%">
  <stop offset="0%" stop-color="rgb(249,222,17)" stop-opacity="1" />
  <stop offset="100%" stop-color="rgb(255,232,58)" stop-opacity="1" />
</linearGradient>

</defs>
<path fill-rule="evenodd"  fill="url(#PSgrad_0)"
 d="M55.000,-0.000 C85.376,-0.000 110.000,24.624 110.000,55.000 C110.000,85.375 85.376,110.000 55.000,110.000 C24.624,110.000 -0.000,85.375 -0.000,55.000 C-0.000,24.624 24.624,-0.000 55.000,-0.000 Z"/>
<path fill-rule="evenodd"  fill="rgb(88, 78, 56)"
 d="M82.000,68.999 C79.863,68.999 78.049,67.645 77.335,65.756 L70.683,62.999 L39.438,62.999 L32.647,65.813 C31.918,67.674 30.116,68.999 28.000,68.999 C27.447,68.999 27.000,68.552 27.000,68.000 L27.000,41.999 C27.000,41.447 27.447,40.999 28.000,40.999 C30.136,40.999 31.950,42.353 32.665,44.242 L39.319,46.999 L70.802,46.999 L77.317,44.300 C78.017,42.381 79.842,40.999 82.000,40.999 C82.553,40.999 83.000,41.447 83.000,41.999 L83.000,68.000 C83.000,68.552 82.553,68.999 82.000,68.999 ZM31.000,63.524 L31.000,60.406 L31.000,56.797 L31.000,53.452 L31.000,49.999 L31.000,46.525 L31.000,45.999 C31.000,44.696 30.164,43.583 29.000,43.170 L29.000,46.525 L29.000,49.999 L29.000,53.452 L29.000,56.797 L29.000,60.406 L29.000,63.524 L29.000,66.829 C30.164,66.415 31.000,65.303 31.000,64.000 L31.000,63.524 ZM38.000,48.617 L33.000,46.545 L33.000,63.503 L38.000,61.431 L38.000,48.617 ZM70.000,48.999 L40.000,48.999 L40.000,60.999 L70.000,60.999 L70.000,48.999 ZM77.000,46.596 L72.000,48.668 L72.000,61.381 L77.000,63.452 L77.000,46.596 ZM81.000,63.524 L81.000,60.406 L81.000,56.797 L81.000,53.452 L81.000,49.999 L81.000,46.525 L81.000,43.170 C79.836,43.583 79.000,44.696 79.000,45.999 L79.000,46.525 L79.000,49.999 L79.000,53.452 L79.000,56.797 L79.000,60.406 L79.000,63.524 L79.000,64.000 C79.000,65.303 79.836,66.415 81.000,66.829 L81.000,63.524 ZM80.000,64.524 C79.447,64.524 79.000,64.077 79.000,63.524 C79.000,62.971 79.447,62.524 80.000,62.524 C80.553,62.524 81.000,62.971 81.000,63.524 C81.000,64.077 80.553,64.524 80.000,64.524 ZM80.000,61.406 C79.447,61.406 79.000,60.958 79.000,60.406 C79.000,59.853 79.447,59.405 80.000,59.405 C80.553,59.405 81.000,59.853 81.000,60.406 C81.000,60.958 80.553,61.406 80.000,61.406 ZM80.000,57.796 C79.447,57.796 79.000,57.349 79.000,56.797 C79.000,56.244 79.447,55.796 80.000,55.796 C80.553,55.796 81.000,56.244 81.000,56.797 C81.000,57.349 80.553,57.796 80.000,57.796 ZM80.000,54.452 C79.447,54.452 79.000,54.005 79.000,53.452 C79.000,52.900 79.447,52.452 80.000,52.452 C80.553,52.452 81.000,52.900 81.000,53.452 C81.000,54.005 80.553,54.452 80.000,54.452 ZM80.000,50.999 C79.447,50.999 79.000,50.552 79.000,49.999 C79.000,49.447 79.447,48.999 80.000,48.999 C80.553,48.999 81.000,49.447 81.000,49.999 C81.000,50.552 80.553,50.999 80.000,50.999 ZM80.000,47.525 C79.447,47.525 79.000,47.077 79.000,46.525 C79.000,45.972 79.447,45.524 80.000,45.524 C80.553,45.524 81.000,45.972 81.000,46.525 C81.000,47.077 80.553,47.525 80.000,47.525 ZM74.560,48.999 C75.113,48.999 75.560,49.447 75.560,49.999 C75.560,50.552 75.113,50.999 74.560,50.999 C74.007,50.999 73.560,50.552 73.560,49.999 C73.560,49.447 74.007,48.999 74.560,48.999 ZM74.560,52.452 C75.113,52.452 75.560,52.900 75.560,53.452 C75.560,54.005 75.113,54.452 74.560,54.452 C74.007,54.452 73.560,54.005 73.560,53.452 C73.560,52.900 74.007,52.452 74.560,52.452 ZM74.560,55.796 C75.113,55.796 75.560,56.244 75.560,56.797 C75.560,57.349 75.113,57.796 74.560,57.796 C74.007,57.796 73.560,57.349 73.560,56.797 C73.560,56.244 74.007,55.796 74.560,55.796 ZM74.560,59.405 C75.113,59.405 75.560,59.853 75.560,60.406 C75.560,60.958 75.113,61.406 74.560,61.406 C74.007,61.406 73.560,60.958 73.560,60.406 C73.560,59.853 74.007,59.405 74.560,59.405 ZM35.724,48.999 C36.277,48.999 36.724,49.447 36.724,49.999 C36.724,50.552 36.277,50.999 35.724,50.999 C35.171,50.999 34.724,50.552 34.724,49.999 C34.724,49.447 35.171,48.999 35.724,48.999 ZM35.724,52.452 C36.277,52.452 36.724,52.900 36.724,53.452 C36.724,54.005 36.277,54.452 35.724,54.452 C35.171,54.452 34.724,54.005 34.724,53.452 C34.724,52.900 35.171,52.452 35.724,52.452 ZM35.724,55.796 C36.277,55.796 36.724,56.244 36.724,56.797 C36.724,57.349 36.277,57.796 35.724,57.796 C35.171,57.796 34.724,57.349 34.724,56.797 C34.724,56.244 35.171,55.796 35.724,55.796 ZM35.724,59.405 C36.277,59.405 36.724,59.853 36.724,60.406 C36.724,60.958 36.277,61.406 35.724,61.406 C35.171,61.406 34.724,60.958 34.724,60.406 C34.724,59.853 35.171,59.405 35.724,59.405 ZM30.000,64.524 C29.447,64.524 29.000,64.077 29.000,63.524 C29.000,62.971 29.447,62.524 30.000,62.524 C30.553,62.524 31.000,62.971 31.000,63.524 C31.000,64.077 30.553,64.524 30.000,64.524 ZM30.000,61.406 C29.447,61.406 29.000,60.958 29.000,60.406 C29.000,59.853 29.447,59.405 30.000,59.405 C30.553,59.405 31.000,59.853 31.000,60.406 C31.000,60.958 30.553,61.406 30.000,61.406 ZM30.000,57.796 C29.447,57.796 29.000,57.349 29.000,56.797 C29.000,56.244 29.447,55.796 30.000,55.796 C30.553,55.796 31.000,56.244 31.000,56.797 C31.000,57.349 30.553,57.796 30.000,57.796 ZM30.000,54.452 C29.447,54.452 29.000,54.005 29.000,53.452 C29.000,52.900 29.447,52.452 30.000,52.452 C30.553,52.452 31.000,52.900 31.000,53.452 C31.000,54.005 30.553,54.452 30.000,54.452 ZM30.000,50.999 C29.447,50.999 29.000,50.552 29.000,49.999 C29.000,49.447 29.447,48.999 30.000,48.999 C30.553,48.999 31.000,49.447 31.000,49.999 C31.000,50.552 30.553,50.999 30.000,50.999 ZM30.000,47.525 C29.447,47.525 29.000,47.077 29.000,46.525 C29.000,45.972 29.447,45.524 30.000,45.524 C30.553,45.524 31.000,45.972 31.000,46.525 C31.000,47.077 30.553,47.525 30.000,47.525 Z"/>
</svg>