<svg 
 xmlns="http://www.w3.org/2000/svg"
 xmlns:xlink="http://www.w3.org/1999/xlink"
 width="202px" height="187px">
<path fill-rule="evenodd"  fill="rgb(241, 241, 241)"
 d="M13.500,-0.001 C20.956,-0.001 27.000,6.044 27.000,13.500 C27.000,20.955 20.956,27.000 13.500,27.000 C6.044,27.000 -0.000,20.955 -0.000,13.500 C-0.000,6.044 6.044,-0.001 13.500,-0.001 Z"/>
<path fill-rule="evenodd"  fill="rgb(241, 241, 241)"
 d="M71.500,-0.001 C78.956,-0.001 85.000,6.044 85.000,13.500 C85.000,20.955 78.956,27.000 71.500,27.000 C64.044,27.000 58.000,20.955 58.000,13.500 C58.000,6.044 64.044,-0.001 71.500,-0.001 Z"/>
<path fill-rule="evenodd"  fill="rgb(241, 241, 241)"
 d="M130.500,-0.001 C137.956,-0.001 144.000,6.044 144.000,13.500 C144.000,20.955 137.956,27.000 130.500,27.000 C123.044,27.000 117.000,20.955 117.000,13.500 C117.000,6.044 123.044,-0.001 130.500,-0.001 Z"/>
<path fill-rule="evenodd"  fill="rgb(241, 241, 241)"
 d="M188.500,-0.001 C195.956,-0.001 202.000,6.044 202.000,13.500 C202.000,20.955 195.956,27.000 188.500,27.000 C181.044,27.000 175.000,20.955 175.000,13.500 C175.000,6.044 181.044,-0.001 188.500,-0.001 Z"/>
<path fill-rule="evenodd"  fill="rgb(241, 241, 241)"
 d="M13.500,53.000 C20.956,53.000 27.000,59.044 27.000,66.500 C27.000,73.955 20.956,80.000 13.500,80.000 C6.044,80.000 -0.000,73.955 -0.000,66.500 C-0.000,59.044 6.044,53.000 13.500,53.000 Z"/>
<path fill-rule="evenodd"  fill="rgb(241, 241, 241)"
 d="M71.500,53.000 C78.956,53.000 85.000,59.044 85.000,66.500 C85.000,73.955 78.956,80.000 71.500,80.000 C64.044,80.000 58.000,73.955 58.000,66.500 C58.000,59.044 64.044,53.000 71.500,53.000 Z"/>
<path fill-rule="evenodd"  fill="rgb(241, 241, 241)"
 d="M130.500,53.000 C137.956,53.000 144.000,59.044 144.000,66.500 C144.000,73.955 137.956,80.000 130.500,80.000 C123.044,80.000 117.000,73.955 117.000,66.500 C117.000,59.044 123.044,53.000 130.500,53.000 Z"/>
<path fill-rule="evenodd"  fill="rgb(241, 241, 241)"
 d="M188.500,53.000 C195.956,53.000 202.000,59.044 202.000,66.500 C202.000,73.955 195.956,80.000 188.500,80.000 C181.044,80.000 175.000,73.955 175.000,66.500 C175.000,59.044 181.044,53.000 188.500,53.000 Z"/>
<path fill-rule="evenodd"  fill="rgb(241, 241, 241)"
 d="M13.500,106.999 C20.956,106.999 27.000,113.044 27.000,120.500 C27.000,127.955 20.956,134.000 13.500,134.000 C6.044,134.000 -0.000,127.955 -0.000,120.500 C-0.000,113.044 6.044,106.999 13.500,106.999 Z"/>
<path fill-rule="evenodd"  fill="rgb(241, 241, 241)"
 d="M71.500,106.999 C78.956,106.999 85.000,113.044 85.000,120.500 C85.000,127.955 78.956,134.000 71.500,134.000 C64.044,134.000 58.000,127.955 58.000,120.500 C58.000,113.044 64.044,106.999 71.500,106.999 Z"/>
<path fill-rule="evenodd"  fill="rgb(241, 241, 241)"
 d="M130.500,106.999 C137.956,106.999 144.000,113.044 144.000,120.500 C144.000,127.955 137.956,134.000 130.500,134.000 C123.044,134.000 117.000,127.955 117.000,120.500 C117.000,113.044 123.044,106.999 130.500,106.999 Z"/>
<path fill-rule="evenodd"  fill="rgb(241, 241, 241)"
 d="M188.500,106.999 C195.956,106.999 202.000,113.044 202.000,120.500 C202.000,127.955 195.956,134.000 188.500,134.000 C181.044,134.000 175.000,127.955 175.000,120.500 C175.000,113.044 181.044,106.999 188.500,106.999 Z"/>
<path fill-rule="evenodd"  fill="rgb(241, 241, 241)"
 d="M13.500,160.000 C20.956,160.000 27.000,166.044 27.000,173.500 C27.000,180.955 20.956,187.000 13.500,187.000 C6.044,187.000 -0.000,180.955 -0.000,173.500 C-0.000,166.044 6.044,160.000 13.500,160.000 Z"/>
<path fill-rule="evenodd"  fill="rgb(241, 241, 241)"
 d="M71.500,160.000 C78.956,160.000 85.000,166.044 85.000,173.500 C85.000,180.955 78.956,187.000 71.500,187.000 C64.044,187.000 58.000,180.955 58.000,173.500 C58.000,166.044 64.044,160.000 71.500,160.000 Z"/>
<path fill-rule="evenodd"  fill="rgb(241, 241, 241)"
 d="M130.500,160.000 C137.956,160.000 144.000,166.044 144.000,173.500 C144.000,180.955 137.956,187.000 130.500,187.000 C123.044,187.000 117.000,180.955 117.000,173.500 C117.000,166.044 123.044,160.000 130.500,160.000 Z"/>
<path fill-rule="evenodd"  fill="rgb(241, 241, 241)"
 d="M188.500,160.000 C195.956,160.000 202.000,166.044 202.000,173.500 C202.000,180.955 195.956,187.000 188.500,187.000 C181.044,187.000 175.000,180.955 175.000,173.500 C175.000,166.044 181.044,160.000 188.500,160.000 Z"/>
</svg>