<svg 
 xmlns="http://www.w3.org/2000/svg"
 xmlns:xlink="http://www.w3.org/1999/xlink"
 width="1442px" height="730px">
<path fill-rule="evenodd"  fill="rgb(248, 248, 248)"
 d="M-0.000,-0.001 L2.000,-0.001 L2.000,730.000 L-0.000,730.000 L-0.000,-0.001 Z"/>
<path fill-rule="evenodd"  fill="rgb(248, 248, 248)"
 d="M288.000,-0.001 L290.000,-0.001 L290.000,730.000 L288.000,730.000 L288.000,-0.001 Z"/>
<path fill-rule="evenodd"  fill="rgb(248, 248, 248)"
 d="M576.000,-0.001 L578.000,-0.001 L578.000,730.000 L576.000,730.000 L576.000,-0.001 Z"/>
<path fill-rule="evenodd"  fill="rgb(248, 248, 248)"
 d="M864.000,-0.001 L866.000,-0.001 L866.000,730.000 L864.000,730.000 L864.000,-0.001 Z"/>
<path fill-rule="evenodd"  fill="rgb(248, 248, 248)"
 d="M1152.000,-0.001 L1154.000,-0.001 L1154.000,730.000 L1152.000,730.000 L1152.000,-0.001 Z"/>
<path fill-rule="evenodd"  fill="rgb(248, 248, 248)"
 d="M1440.000,-0.001 L1442.000,-0.001 L1442.000,730.000 L1440.000,730.000 L1440.000,-0.001 Z"/>
</svg>