<svg 
 xmlns="http://www.w3.org/2000/svg"
 xmlns:xlink="http://www.w3.org/1999/xlink"
 width="97px" height="80px">
<path fill-rule="evenodd"  fill="rgb(238, 238, 238)"
 d="M95.401,63.708 C92.727,73.296 83.935,79.994 74.020,79.994 C73.987,79.994 73.954,79.993 73.921,79.992 C65.886,79.677 59.641,76.530 55.360,70.635 C47.711,60.100 48.622,43.362 51.726,32.231 C57.016,13.256 69.553,0.003 82.212,0.003 C82.998,0.003 83.791,0.058 84.570,0.164 C85.286,0.262 85.925,0.667 86.323,1.274 C86.720,1.881 86.836,2.630 86.641,3.329 L84.336,11.598 C84.070,12.551 83.269,13.259 82.293,13.405 C71.747,14.978 66.453,28.940 64.249,37.032 C66.535,36.041 69.483,35.231 73.016,35.231 C75.304,35.231 77.656,35.575 80.008,36.254 C85.742,37.909 90.485,41.647 93.365,46.778 C96.275,51.963 96.998,57.975 95.401,63.708 ZM25.310,79.993 C25.277,79.993 25.245,79.992 25.212,79.991 C17.176,79.676 10.931,76.528 6.651,70.634 C-0.999,60.100 -0.088,43.362 3.017,32.231 C8.307,13.256 20.844,0.003 33.503,0.003 C34.289,0.003 35.083,0.058 35.861,0.164 C36.577,0.262 37.216,0.667 37.614,1.274 C38.012,1.881 38.127,2.630 37.932,3.329 L35.628,11.598 C35.361,12.551 34.561,13.259 33.584,13.405 C23.038,14.978 17.744,28.940 15.540,37.032 C17.826,36.041 20.774,35.231 24.307,35.231 C26.595,35.231 28.947,35.575 31.299,36.254 C37.033,37.909 41.776,41.647 44.656,46.778 C47.567,51.963 48.289,57.975 46.692,63.708 C44.017,73.296 35.225,79.993 25.310,79.993 Z"/>
</svg>