<svg 
 xmlns="http://www.w3.org/2000/svg"
 xmlns:xlink="http://www.w3.org/1999/xlink"
 width="38px" height="38px">
<path fill-rule="evenodd"  fill="rgb(0, 0, 0)"
 d="M34.200,7.600 L30.400,7.600 L30.400,8.866 L26.600,8.866 L26.600,7.600 L11.400,7.600 L11.400,8.866 L7.600,8.866 L7.600,7.600 L3.800,7.600 C1.701,7.600 -0.000,5.899 -0.000,3.800 C-0.000,1.701 1.701,-0.000 3.800,-0.000 L34.200,-0.000 C36.299,-0.000 38.000,1.701 38.000,3.800 C38.000,5.899 36.299,7.600 34.200,7.600 ZM7.321,10.133 L5.896,13.933 L1.659,13.933 L3.559,10.133 L7.321,10.133 ZM5.700,18.367 C5.700,19.416 4.849,20.266 3.800,20.266 C2.751,20.266 1.900,19.416 1.900,18.367 L1.900,15.200 L5.700,15.200 L5.700,18.367 ZM15.833,18.367 C15.833,19.416 14.983,20.266 13.933,20.266 C12.884,20.266 12.033,19.416 12.033,18.367 L12.033,15.200 L15.833,15.200 L15.833,18.367 ZM16.923,10.133 L15.973,13.933 L12.312,13.933 L13.737,10.133 L16.923,10.133 ZM8.867,20.266 C7.817,20.266 6.967,19.416 6.967,18.367 L6.967,15.200 L10.767,15.200 L10.767,18.367 C10.767,19.416 9.916,20.266 8.867,20.266 ZM12.388,10.133 L10.963,13.933 L7.245,13.933 L8.670,10.133 L12.388,10.133 ZM19.773,10.133 L20.723,13.933 L17.277,13.933 L18.227,10.133 L19.773,10.133 ZM20.900,18.367 C20.900,19.416 20.049,20.266 19.000,20.266 C17.951,20.266 17.100,19.416 17.100,18.367 L17.100,15.200 L20.900,15.200 L20.900,18.367 ZM6.333,20.247 C6.925,21.055 7.865,21.533 8.867,21.533 C9.868,21.533 10.809,21.055 11.400,20.247 C11.991,21.055 12.932,21.533 13.933,21.533 C14.934,21.533 15.875,21.055 16.467,20.247 C17.058,21.055 17.999,21.533 19.000,21.533 C20.001,21.533 20.942,21.055 21.533,20.247 C22.125,21.055 23.066,21.533 24.067,21.533 C25.068,21.533 26.009,21.055 26.600,20.247 C27.191,21.055 28.132,21.533 29.133,21.533 C30.134,21.533 31.075,21.055 31.667,20.247 C32.260,21.052 33.200,21.529 34.200,21.533 C34.635,21.533 35.066,21.444 35.467,21.273 L35.467,37.366 C35.467,37.716 35.183,38.000 34.833,38.000 L3.167,38.000 C2.817,38.000 2.533,37.716 2.533,37.366 L2.533,21.273 C2.934,21.444 3.365,21.533 3.800,21.533 C4.800,21.529 5.740,21.052 6.333,20.247 ZM22.800,36.733 L24.067,36.733 L24.067,29.133 C24.067,27.034 25.768,25.333 27.867,25.333 C29.965,25.333 31.667,27.034 31.667,29.133 L31.667,36.733 L32.933,36.733 L32.933,29.133 C32.933,26.335 30.665,24.066 27.867,24.066 C25.069,24.066 22.800,26.335 22.800,29.133 L22.800,36.733 ZM5.067,33.566 C5.067,33.916 5.350,34.200 5.700,34.200 L20.900,34.200 C21.250,34.200 21.533,33.916 21.533,33.566 L21.533,24.700 C21.533,24.350 21.250,24.066 20.900,24.066 L5.700,24.066 C5.350,24.066 5.067,24.350 5.067,24.700 L5.067,33.566 ZM20.267,32.933 L6.333,32.933 L6.333,25.333 L20.267,25.333 L20.267,32.933 ZM32.300,18.367 L32.300,15.200 L36.100,15.200 L36.100,18.367 C36.100,19.416 35.249,20.266 34.200,20.266 C33.151,20.266 32.300,19.416 32.300,18.367 ZM36.341,13.933 L32.104,13.933 L30.679,10.133 L34.441,10.133 L36.341,13.933 ZM31.033,18.367 C31.030,19.415 30.181,20.263 29.133,20.266 C28.085,20.263 27.237,19.415 27.233,18.367 L27.233,15.200 L31.033,15.200 L31.033,18.367 ZM30.754,13.933 L27.037,13.933 L25.612,10.133 L29.330,10.133 L30.754,13.933 ZM25.967,18.367 C25.967,19.416 25.116,20.266 24.067,20.266 C23.017,20.266 22.167,19.416 22.167,18.367 L22.167,15.200 L25.967,15.200 L25.967,18.367 ZM21.077,10.133 L24.263,10.133 L25.688,13.933 L22.027,13.933 L21.077,10.133 Z"/>
</svg>