<svg 
 xmlns="http://www.w3.org/2000/svg"
 xmlns:xlink="http://www.w3.org/1999/xlink"
 width="35px" height="33px">
<path fill-rule="evenodd"  fill="rgb(0, 0, 0)"
 d="M34.219,27.923 L0.781,27.923 C0.350,27.923 -0.000,27.568 -0.000,27.130 L-0.000,24.115 L23.536,24.115 L23.627,25.649 C23.637,25.875 23.761,26.080 23.954,26.191 C24.210,26.332 24.527,26.275 24.720,26.055 L26.413,24.115 L35.000,24.115 L35.000,27.130 C35.000,27.568 34.650,27.923 34.219,27.923 ZM19.375,25.384 L15.625,25.384 L15.625,26.654 L19.375,26.654 L19.375,25.384 ZM19.561,6.981 L23.136,17.014 C23.127,17.066 23.123,17.119 23.126,17.172 L23.274,19.673 L21.048,19.673 L19.955,16.899 C19.860,16.657 19.630,16.500 19.375,16.500 L15.625,16.500 C15.369,16.500 15.140,16.657 15.045,16.899 L13.952,19.673 L10.930,19.673 L15.439,6.981 L19.561,6.981 ZM15.751,14.343 C15.869,14.503 16.054,14.596 16.250,14.596 L18.750,14.596 C18.946,14.596 19.131,14.503 19.249,14.343 C19.367,14.184 19.405,13.978 19.351,13.787 L18.101,9.345 C18.024,9.072 17.779,8.884 17.500,8.884 C17.221,8.884 16.976,9.072 16.899,9.345 L15.649,13.787 C15.595,13.978 15.633,14.184 15.751,14.343 ZM17.922,13.326 L17.078,13.326 L17.500,11.829 L17.922,13.326 ZM3.750,6.346 L5.000,6.346 L5.000,7.615 L3.750,7.615 L3.750,6.346 ZM5.000,20.307 L3.750,20.307 L3.750,19.038 L5.000,19.038 L5.000,20.307 ZM13.885,7.615 L9.826,19.038 L6.250,19.038 L6.250,18.404 C6.250,18.053 5.970,17.769 5.625,17.769 L5.000,17.769 L5.000,8.884 L5.625,8.884 C5.970,8.884 6.250,8.600 6.250,8.250 L6.250,7.615 L13.885,7.615 ZM31.250,20.307 L30.000,20.307 L30.000,19.038 L31.250,19.038 L31.250,20.307 ZM30.000,6.346 L31.250,6.346 L31.250,7.615 L30.000,7.615 L30.000,6.346 ZM29.112,21.518 L26.750,22.009 C26.617,22.037 26.497,22.107 26.407,22.209 L24.786,24.066 L24.449,18.363 L28.887,21.339 C28.947,21.415 29.024,21.477 29.112,21.518 ZM21.117,7.615 L28.750,7.615 L28.750,8.250 C28.750,8.600 29.030,8.884 29.375,8.884 L30.000,8.884 L30.000,17.769 L29.375,17.769 C29.030,17.769 28.750,18.053 28.750,18.404 L28.750,19.726 L24.390,16.803 L21.117,7.615 ZM30.873,22.447 C31.057,22.409 31.214,22.289 31.301,22.120 C31.388,21.952 31.396,21.752 31.322,21.576 L31.875,21.576 C32.220,21.576 32.500,21.292 32.500,20.942 L32.500,18.404 C32.500,18.053 32.220,17.769 31.875,17.769 L31.250,17.769 L31.250,8.884 L31.875,8.884 C32.220,8.884 32.500,8.600 32.500,8.250 L32.500,5.711 C32.500,5.361 32.220,5.077 31.875,5.077 L29.375,5.077 C29.030,5.077 28.750,5.361 28.750,5.711 L28.750,6.346 L20.665,6.346 L20.588,6.130 C20.498,5.879 20.263,5.711 20.000,5.711 L15.000,5.711 C14.737,5.711 14.502,5.879 14.412,6.131 L14.336,6.346 L6.250,6.346 L6.250,5.711 C6.250,5.361 5.970,5.077 5.625,5.077 L3.125,5.077 C2.780,5.077 2.500,5.361 2.500,5.711 L2.500,8.250 C2.500,8.600 2.780,8.884 3.125,8.884 L3.750,8.884 L3.750,17.769 L3.125,17.769 C2.780,17.769 2.500,18.053 2.500,18.404 L2.500,20.942 C2.500,21.293 2.780,21.577 3.125,21.577 L5.625,21.577 C5.970,21.577 6.250,21.293 6.250,20.942 L6.250,20.308 L9.415,20.308 C9.415,20.658 9.694,20.942 10.040,20.942 L14.375,20.942 C14.630,20.942 14.860,20.784 14.955,20.543 L16.048,17.769 L18.952,17.769 L20.045,20.543 C20.139,20.784 20.369,20.942 20.625,20.942 L23.349,20.942 L23.461,22.846 L-0.000,22.846 L-0.000,3.807 L35.000,3.807 L35.000,22.846 L28.955,22.846 L30.873,22.447 ZM-0.000,0.793 C-0.000,0.355 0.350,-0.001 0.781,-0.001 L34.219,-0.001 C34.650,-0.001 35.000,0.355 35.000,0.793 L35.000,2.538 L-0.000,2.538 L-0.000,0.793 ZM32.500,1.904 L33.750,1.904 L33.750,0.634 L32.500,0.634 L32.500,1.904 ZM30.000,1.904 L31.250,1.904 L31.250,0.634 L30.000,0.634 L30.000,1.904 ZM6.250,1.904 L7.500,1.904 L7.500,0.634 L6.250,0.634 L6.250,1.904 ZM3.750,1.904 L5.000,1.904 L5.000,0.634 L3.750,0.634 L3.750,1.904 ZM1.250,1.904 L2.500,1.904 L2.500,0.634 L1.250,0.634 L1.250,1.904 ZM11.266,31.971 L11.811,31.787 C12.993,31.382 13.902,30.411 14.238,29.192 L20.762,29.192 C21.099,30.411 22.007,31.382 23.190,31.787 L23.735,31.971 C24.117,32.100 24.375,32.464 24.375,32.874 L24.375,33.000 L10.625,33.000 L10.625,32.874 C10.625,32.464 10.883,32.100 11.266,31.971 Z"/>
</svg>