<svg 
 xmlns="http://www.w3.org/2000/svg"
 xmlns:xlink="http://www.w3.org/1999/xlink"
 width="36px" height="36px">
<path fill-rule="evenodd"  fill="rgb(0, 0, 0)"
 d="M33.495,14.569 C31.091,16.966 27.614,17.639 24.607,16.588 L23.392,17.800 C22.827,17.240 22.079,16.931 21.282,16.931 C20.802,16.931 20.338,17.043 19.923,17.256 L16.784,14.125 L19.419,11.497 C18.297,8.467 18.954,4.931 21.393,2.498 C23.415,0.480 26.198,-0.315 28.821,0.110 C29.110,0.157 29.349,0.360 29.439,0.638 C29.529,0.916 29.455,1.220 29.248,1.427 L27.444,3.226 C25.975,4.692 25.975,7.068 27.444,8.533 C28.913,9.999 31.295,9.999 32.764,8.533 L34.569,6.734 C34.775,6.528 35.081,6.455 35.359,6.544 C35.638,6.634 35.842,6.871 35.889,7.160 C36.315,9.776 35.517,12.552 33.495,14.569 ZM8.198,8.166 L19.820,19.759 L20.473,19.108 C20.696,18.885 20.989,18.773 21.282,18.773 C21.575,18.773 21.868,18.885 22.092,19.108 L32.813,29.802 C34.235,31.220 34.235,33.518 32.813,34.935 C31.392,36.353 29.088,36.353 27.667,34.935 L16.945,24.241 C16.498,23.795 16.498,23.072 16.945,22.626 L17.644,21.930 L6.021,10.337 L5.478,10.879 C4.983,11.374 4.162,11.311 3.747,10.749 L0.255,6.019 C-0.081,5.565 -0.033,4.934 0.367,4.535 L2.380,2.527 C2.781,2.127 3.413,2.080 3.869,2.414 L8.611,5.898 C9.175,6.312 9.236,7.131 8.741,7.625 L8.198,8.166 ZM11.995,18.901 L15.121,22.019 C14.512,23.146 14.684,24.585 15.634,25.538 L6.212,34.935 C4.791,36.353 2.487,36.353 1.065,34.935 C-0.356,33.518 -0.356,31.220 1.065,29.802 L11.995,18.901 Z"/>
</svg>