<svg 
 xmlns="http://www.w3.org/2000/svg"
 xmlns:xlink="http://www.w3.org/1999/xlink"
 width="47px" height="33px">
<path fill-rule="evenodd"  fill="rgb(0, 0, 0)"
 d="M44.442,20.043 L43.147,17.391 C42.773,17.656 42.407,18.004 42.217,18.433 C42.003,18.916 41.924,19.335 41.840,19.779 C41.708,20.483 41.558,21.281 40.856,22.184 C40.628,22.478 40.516,22.744 40.467,22.965 L42.340,22.965 L44.559,27.619 C45.243,29.040 45.590,30.536 45.590,32.067 L42.829,32.067 C42.829,30.934 42.594,29.825 42.129,28.763 L39.521,29.828 C39.521,29.828 38.421,28.662 37.224,28.975 C36.767,29.095 36.287,29.365 35.943,29.833 C34.948,31.189 33.685,32.102 31.051,32.102 C30.581,32.102 30.068,32.073 29.505,32.012 C28.172,31.869 27.395,32.147 26.378,32.418 C25.036,32.776 24.033,33.114 22.371,32.960 C20.923,32.827 19.384,32.200 17.801,31.058 C16.410,30.055 14.633,29.502 12.798,29.502 C10.624,29.502 8.548,30.277 7.103,31.627 L5.672,32.966 L3.819,32.966 L-0.000,27.227 L3.230,25.442 C2.751,23.655 3.357,21.702 4.846,20.522 C5.434,20.055 6.109,19.702 6.877,19.458 C8.255,20.982 10.666,23.713 10.666,23.713 L14.970,23.713 L20.214,17.863 C20.225,17.852 20.236,17.839 20.247,17.828 C22.242,16.848 23.538,16.360 25.768,15.818 L27.117,15.489 L27.874,17.797 C31.672,17.133 34.793,15.477 36.180,13.344 C38.079,10.422 41.117,9.881 41.246,9.859 L42.370,9.670 L47.000,19.181 L44.442,20.043 ZM13.572,21.419 L12.065,21.419 L7.617,16.471 C5.739,14.430 3.167,11.634 3.167,8.018 C3.167,3.597 7.497,-0.000 12.819,-0.000 C18.140,-0.000 22.470,3.597 22.470,8.018 C22.470,11.634 19.898,14.430 18.020,16.471 L13.572,21.419 ZM12.819,4.200 C10.285,4.200 8.223,5.913 8.223,8.018 C8.223,10.123 10.285,11.836 12.819,11.836 C15.353,11.836 17.414,10.123 17.414,8.018 C17.414,5.913 15.353,4.200 12.819,4.200 ZM12.122,9.428 C11.185,9.106 10.741,8.214 11.129,7.437 C11.517,6.658 12.591,6.289 13.527,6.612 C14.463,6.934 14.908,7.826 14.520,8.604 C14.131,9.381 13.058,9.751 12.122,9.428 Z"/>
</svg>