<svg 
 xmlns="http://www.w3.org/2000/svg"
 xmlns:xlink="http://www.w3.org/1999/xlink"
 width="41px" height="37px">
<path fill-rule="evenodd"  fill="rgb(0, 0, 0)"
 d="M38.598,33.140 L33.499,33.140 L33.499,29.668 L36.380,29.668 C37.043,29.668 37.580,29.132 37.580,28.472 L37.580,24.064 C37.580,23.404 37.043,22.869 36.380,22.869 L4.620,22.869 C3.957,22.869 3.420,23.404 3.420,24.064 L3.420,28.472 C3.420,29.132 3.957,29.668 4.620,29.668 L7.501,29.668 L7.501,33.140 L2.402,33.140 C1.076,33.140 -0.000,32.069 -0.000,30.747 L-0.000,17.976 C-0.000,16.078 1.545,14.539 3.450,14.539 L37.550,14.539 C39.455,14.539 41.000,16.078 41.000,17.976 L41.000,30.747 C41.000,32.069 39.924,33.140 38.598,33.140 ZM6.222,18.395 L4.620,18.395 C3.957,18.395 3.420,18.931 3.420,19.590 C3.420,20.250 3.957,20.785 4.620,20.785 L6.222,20.785 C6.885,20.785 7.422,20.250 7.422,19.590 C7.422,18.931 6.885,18.395 6.222,18.395 ZM10.590,2.390 C10.590,1.070 11.664,-0.000 12.989,-0.000 L28.011,-0.000 C29.336,-0.000 30.410,1.070 30.410,2.390 L30.410,12.148 L10.590,12.148 L10.590,2.390 ZM14.735,9.473 L26.265,9.473 C26.928,9.473 27.465,8.939 27.465,8.279 C27.465,7.619 26.928,7.084 26.265,7.084 L14.735,7.084 C14.072,7.084 13.535,7.619 13.535,8.279 C13.535,8.939 14.072,9.473 14.735,9.473 ZM14.735,5.362 L26.265,5.362 C26.928,5.362 27.465,4.826 27.465,4.167 C27.465,3.507 26.928,2.971 26.265,2.971 L14.735,2.971 C14.072,2.971 13.535,3.507 13.535,4.167 C13.535,4.826 14.072,5.362 14.735,5.362 ZM31.100,25.316 L31.100,34.609 C31.100,35.930 30.026,37.000 28.700,37.000 L12.300,37.000 C10.974,37.000 9.900,35.930 9.900,34.609 L9.900,25.316 C9.900,25.296 9.898,25.278 9.897,25.259 L31.103,25.259 C31.102,25.278 31.100,25.296 31.100,25.316 Z"/>
</svg>