<svg style="display: none;" xmlns="http://www.w3.org/2000/svg" xmlns:xlink="http://www.w3.org/1999/xlink">
    <symbol id="tel" viewBox="0 0 16 16">
        <g>
            <path d="M15.580,11.735 L13.343,9.498 C12.544,8.699 11.185,9.018 10.866,10.057 C10.626,10.776 9.827,11.175 9.108,11.016 C7.509,10.616 5.352,8.540 4.952,6.862 C4.713,6.142 5.192,5.344 5.911,5.105 C6.950,4.785 7.270,3.427 6.471,2.628 L4.233,0.391 C3.594,-0.167 2.635,-0.167 2.076,0.391 L0.558,1.910 C-0.961,3.507 0.717,7.741 4.473,11.494 C8.229,15.249 12.464,17.006 14.062,15.409 L15.580,13.892 C16.139,13.252 16.139,12.293 15.580,11.735 Z"/>
        </g>
    </symbol>
    <symbol id="schedule" viewBox="0 0 16 16">
        <g>
            <path d="M8.000,-0.000 C3.589,-0.000 -0.000,3.588 -0.000,7.999 C-0.000,12.410 3.589,15.999 8.000,15.999 C12.411,15.999 16.000,12.410 16.000,7.999 C16.000,3.588 12.411,-0.000 8.000,-0.000 L8.000,-0.000 ZM11.805,12.138 C11.675,12.267 11.504,12.333 11.333,12.333 C11.163,12.333 10.992,12.267 10.862,12.138 L7.529,8.804 C7.403,8.680 7.333,8.510 7.333,8.333 L7.333,3.999 C7.333,3.631 7.632,3.333 8.000,3.333 C8.368,3.333 8.667,3.631 8.667,3.999 L8.667,8.057 L11.805,11.195 C12.065,11.455 12.065,11.877 11.805,12.138 L11.805,12.138 Z"/>
        </g>
    </symbol>
    <symbol id="vk" viewBox="0 0 28 16">
        <g>
            <path d="M25.591,16.004 L22.715,16.004 C21.792,16.004 21.320,15.491 20.462,14.557 C20.111,14.176 19.674,13.700 19.098,13.136 C17.871,11.980 17.013,11.415 16.478,11.415 C16.222,11.415 16.178,11.446 16.173,11.451 C16.057,11.568 16.064,12.332 16.073,13.299 C16.076,13.659 16.080,14.075 16.080,14.558 C16.080,15.626 15.450,16.004 13.671,16.004 C10.359,16.004 6.971,14.022 4.608,10.703 C0.817,5.502 -0.004,1.790 -0.004,1.151 C-0.004,0.626 0.229,-0.001 1.336,-0.001 L4.213,-0.001 C5.173,-0.001 5.539,0.486 5.844,1.326 C7.320,5.541 9.629,8.619 10.269,8.619 C10.341,8.619 10.362,8.610 10.363,8.610 C10.366,8.604 10.448,8.499 10.448,7.896 L10.448,3.746 C10.389,2.697 10.023,2.254 9.729,1.897 C9.521,1.644 9.305,1.383 9.305,0.997 C9.305,0.506 9.711,-0.002 10.391,-0.002 L14.913,-0.002 C16.078,-0.002 16.078,1.045 16.078,1.388 L16.078,6.967 C16.078,7.298 16.183,7.414 16.211,7.427 C16.393,7.423 16.620,7.305 17.278,6.659 C19.272,4.478 20.721,1.048 20.736,1.014 C21.025,0.339 21.555,-0.002 22.313,-0.002 L25.189,-0.002 C25.710,-0.002 26.082,0.142 26.293,0.425 C26.493,0.693 26.528,1.051 26.397,1.489 L26.390,1.511 C25.986,3.159 22.880,7.507 22.475,8.060 L22.476,8.061 C22.204,8.491 22.169,8.546 22.455,8.907 L22.461,8.914 C22.500,8.960 22.678,9.138 22.866,9.327 C23.940,10.401 26.455,12.918 26.923,14.347 C27.103,14.945 26.957,15.315 26.803,15.521 C26.639,15.741 26.295,16.004 25.591,16.004 ZM16.478,10.710 C17.010,10.710 17.796,10.938 19.589,12.629 C20.183,13.210 20.626,13.693 20.983,14.081 C21.852,15.027 22.129,15.300 22.715,15.300 L25.591,15.300 C25.911,15.300 26.140,15.229 26.236,15.101 C26.340,14.962 26.300,14.729 26.249,14.558 C25.835,13.297 23.314,10.774 22.365,9.824 C22.056,9.514 21.947,9.405 21.898,9.340 C21.346,8.642 21.532,8.231 21.879,7.684 L21.908,7.644 C22.504,6.834 25.404,2.701 25.710,1.313 L25.756,1.134 C25.778,1.003 25.768,0.902 25.726,0.846 C25.658,0.755 25.463,0.703 25.189,0.703 L22.313,0.703 C21.840,0.703 21.563,0.878 21.387,1.288 C21.327,1.431 19.876,4.864 17.787,7.148 C17.092,7.830 16.701,8.128 16.184,8.128 C15.857,8.128 15.371,7.819 15.371,6.967 L15.371,1.388 C15.371,0.703 15.189,0.703 14.913,0.703 L10.391,0.703 C10.129,0.703 10.012,0.875 10.012,0.997 C10.012,1.124 10.098,1.233 10.275,1.450 C10.596,1.839 11.082,2.429 11.155,3.726 L11.155,7.896 C11.155,8.587 11.087,9.325 10.269,9.325 C8.911,9.325 6.462,5.226 5.178,1.562 C4.909,0.823 4.711,0.705 4.213,0.705 L1.336,0.705 C0.703,0.705 0.703,0.931 0.703,1.151 C0.703,1.643 1.482,5.215 5.182,10.292 C7.414,13.429 10.587,15.300 13.671,15.300 C15.373,15.300 15.373,14.972 15.373,14.558 C15.373,14.078 15.369,13.663 15.366,13.305 C15.352,11.791 15.348,11.280 15.670,10.955 C15.895,10.729 16.205,10.710 16.478,10.710 Z"/>
        </g>
    </symbol>
    <symbol id="in" viewBox="0 0 22 22">
        <g>
            <path d="M16.604,21.999 L5.396,21.999 C2.421,21.999 -0.000,19.578 -0.000,16.603 L-0.000,5.395 C-0.000,2.420 2.421,-0.001 5.396,-0.001 L16.604,-0.001 C19.579,-0.001 22.000,2.420 22.000,5.395 L22.000,16.603 C22.000,19.578 19.579,21.999 16.604,21.999 ZM21.170,5.395 C21.170,2.878 19.121,0.830 16.604,0.830 L5.396,0.830 C2.878,0.830 0.830,2.878 0.830,5.395 L0.830,16.603 C0.830,19.121 2.878,21.169 5.396,21.169 L16.604,21.169 C19.121,21.169 21.170,19.121 21.170,16.603 L21.170,5.395 ZM11.000,16.802 C7.800,16.802 5.197,14.199 5.197,10.999 C5.197,7.800 7.800,5.196 11.000,5.196 C14.200,5.196 16.803,7.800 16.803,10.999 C16.803,14.199 14.200,16.802 11.000,16.802 ZM11.000,6.027 C8.258,6.027 6.027,8.257 6.027,10.999 C6.027,13.741 8.258,15.972 11.000,15.972 C13.742,15.972 15.973,13.741 15.973,10.999 C15.973,8.257 13.742,6.027 11.000,6.027 Z"/>
        </g>
    </symbol>
    <symbol id="fb" viewBox="0 0 22 22">
        <g>
            <path d="M18.931,21.996 L14.541,21.996 L14.541,13.876 L16.660,13.876 L17.642,11.424 L14.541,11.424 L14.541,8.355 C14.541,8.026 14.635,7.766 14.822,7.581 C15.145,7.261 15.615,7.264 16.118,7.268 L17.184,7.269 L17.184,4.816 L14.966,4.816 C13.015,4.816 11.427,6.403 11.427,8.355 L11.427,11.424 L8.784,11.424 L8.784,13.876 L11.427,13.876 L11.427,21.996 L3.072,21.996 C1.380,21.996 0.004,20.620 0.004,18.928 L0.004,3.069 C0.004,1.378 1.380,0.001 3.072,0.001 L18.931,0.001 C20.623,0.001 21.999,1.378 21.999,3.069 L21.999,18.928 C21.999,20.620 20.623,21.996 18.931,21.996 ZM15.391,21.145 L18.931,21.145 C20.154,21.145 21.149,20.150 21.149,18.928 L21.149,3.069 C21.149,1.846 20.154,0.851 18.931,0.851 L3.072,0.851 C1.850,0.851 0.855,1.846 0.855,3.069 L0.855,18.928 C0.855,20.150 1.850,21.145 3.072,21.145 L10.576,21.145 L10.576,14.727 L7.933,14.727 L7.933,10.573 L10.576,10.573 L10.576,8.355 C10.576,5.935 12.546,3.965 14.966,3.965 L18.035,3.965 L18.035,8.120 L16.111,8.119 C15.865,8.116 15.492,8.114 15.421,8.184 C15.413,8.193 15.391,8.240 15.391,8.355 L15.391,10.573 L18.899,10.573 L17.236,14.727 L15.391,14.727 L15.391,21.145 Z"/>
        </g>
    </symbol>
    <symbol id="prev" viewBox="0 0 60 14">
        <g>
            <path d="M8.153,1.302 C8.609,1.745 8.607,2.462 8.149,2.902 L4.040,6.852 L58.829,6.852 C59.476,6.852 60.000,7.359 60.000,7.983 C60.000,8.608 59.476,9.115 58.829,9.115 L4.040,9.115 L8.149,13.065 C8.607,13.506 8.609,14.223 8.153,14.665 C7.696,15.108 6.955,15.110 6.496,14.669 L0.376,8.786 C0.376,8.786 0.375,8.784 0.375,8.784 C-0.082,8.344 -0.084,7.625 0.375,7.183 C0.375,7.183 0.376,7.182 0.376,7.182 L6.496,1.298 C6.955,0.857 7.696,0.859 8.153,1.302 L8.153,1.302 Z"/>
        </g>
    </symbol>
    <symbol id="next" viewBox="0 0 60 14">
        <g>
            <path d="M51.874,0.332 C51.418,0.774 51.420,1.489 51.878,1.929 L55.989,5.870 L1.172,5.870 C0.524,5.870 -0.000,6.376 -0.000,6.999 C-0.000,7.623 0.524,8.128 1.172,8.128 L55.989,8.128 L51.878,12.070 C51.419,12.509 51.418,13.224 51.874,13.666 C52.331,14.108 53.073,14.110 53.532,13.670 L59.655,7.800 C59.655,7.799 59.655,7.799 59.656,7.798 C60.113,7.358 60.115,6.641 59.656,6.200 C59.655,6.200 59.655,6.200 59.655,6.199 L53.532,0.329 C53.073,-0.111 52.331,-0.110 51.874,0.332 L51.874,0.332 Z"/>
        </g>
    </symbol>
    <symbol id="form-block-name" viewBox="0 0 24 24">
        <g>
            <path d="M20.233,20.707 C20.199,20.752 20.156,20.790 20.106,20.822 C17.968,22.788 15.126,24.000 12.000,24.000 C8.874,24.000 6.032,22.788 3.894,20.822 C3.844,20.790 3.801,20.752 3.767,20.707 C1.453,18.518 -0.000,15.428 -0.000,11.999 C-0.000,5.382 5.383,-0.000 12.000,-0.000 C18.617,-0.000 24.000,5.382 24.000,11.999 C24.000,15.428 22.547,18.518 20.233,20.707 ZM19.208,20.289 C17.887,17.678 15.109,15.999 12.000,15.999 C8.891,15.999 6.113,17.678 4.792,20.289 C6.725,21.972 9.242,22.999 12.000,22.999 C14.758,22.999 17.275,21.972 19.208,20.289 ZM12.000,1.000 C5.935,1.000 1.000,5.934 1.000,11.999 C1.000,14.935 2.163,17.600 4.044,19.575 C5.586,16.782 8.619,14.999 12.000,14.999 C15.381,14.999 18.414,16.782 19.956,19.575 C21.837,17.600 23.000,14.935 23.000,11.999 C23.000,5.934 18.065,1.000 12.000,1.000 ZM11.993,12.198 C11.749,12.198 11.504,12.176 11.259,12.133 C9.492,11.813 8.000,9.934 8.000,8.028 L8.000,6.971 C8.000,5.065 9.492,3.186 11.259,2.866 C12.447,2.654 13.650,2.966 14.563,3.728 C15.476,4.492 16.000,5.611 16.000,6.799 L16.000,8.200 C16.000,9.388 15.476,10.507 14.563,11.271 C13.839,11.875 12.931,12.198 11.993,12.198 ZM15.000,6.799 C15.000,5.908 14.607,5.068 13.922,4.496 C13.374,4.039 12.709,3.799 12.007,3.799 C11.819,3.799 11.628,3.816 11.436,3.851 C10.139,4.086 9.000,5.543 9.000,6.971 L9.000,8.028 C9.000,9.456 10.139,10.913 11.436,11.148 C12.346,11.316 13.228,11.083 13.922,10.503 C14.607,9.931 15.000,9.092 15.000,8.200 L15.000,6.799 Z"/>
        </g>
    </symbol>
    <symbol id="form-block-tel" viewBox="0 0 17 24">
        <g>
            <path d="M14.519,24.000 C14.511,24.000 14.503,24.000 14.494,24.000 C11.890,23.977 6.839,20.242 3.752,14.917 L3.692,14.810 L4.069,14.458 L3.629,14.706 C0.542,9.381 -0.164,3.185 1.133,0.954 C1.589,0.170 2.187,0.002 2.609,-0.001 L5.890,0.146 C6.345,0.172 6.744,0.430 6.990,0.854 L7.027,0.925 C7.242,1.288 7.250,1.565 7.266,2.133 C7.272,2.346 7.280,2.616 7.299,2.971 C7.370,3.572 7.467,4.363 7.570,4.892 C7.714,5.651 7.291,6.393 6.608,6.581 L5.751,6.807 C5.594,6.850 5.457,6.954 5.377,7.095 C5.225,7.361 5.527,8.831 6.977,11.646 C7.202,12.081 7.396,12.436 7.517,12.646 C7.639,12.853 7.850,13.199 8.116,13.611 C9.840,16.271 10.971,17.272 11.278,17.276 C11.440,17.278 11.603,17.217 11.721,17.102 L12.346,16.492 C12.861,16.000 13.722,16.013 14.310,16.521 C14.721,16.876 15.363,17.360 15.876,17.742 C16.151,17.920 16.384,18.063 16.566,18.176 C17.065,18.483 17.303,18.630 17.514,19.015 L17.543,19.058 C17.789,19.483 17.812,19.954 17.607,20.349 L16.086,23.202 C15.859,23.579 15.417,24.000 14.519,24.000 ZM4.532,14.249 L4.603,14.371 C7.696,19.710 12.447,22.982 14.503,23.000 C15.071,22.991 15.161,22.784 15.204,22.713 L16.710,19.888 C16.748,19.815 16.741,19.711 16.689,19.602 L16.637,19.515 C16.552,19.353 16.518,19.325 16.031,19.024 C15.842,18.908 15.603,18.760 15.293,18.559 C14.740,18.148 14.079,17.650 13.644,17.273 C13.437,17.095 13.172,17.094 13.053,17.206 L12.431,17.814 C12.120,18.117 11.698,18.266 11.259,18.276 C10.930,18.271 9.924,18.255 7.263,14.150 C6.986,13.720 6.767,13.362 6.640,13.144 C6.512,12.922 6.310,12.554 6.076,12.101 C3.838,7.757 4.332,6.890 4.495,6.605 C4.706,6.232 5.069,5.954 5.489,5.841 L6.341,5.617 C6.493,5.575 6.626,5.347 6.576,5.079 C6.467,4.519 6.367,3.703 6.291,3.055 C6.268,2.659 6.260,2.381 6.254,2.161 C6.239,1.593 6.232,1.550 6.131,1.395 L6.079,1.284 C6.039,1.226 5.939,1.151 5.838,1.144 L2.590,0.999 C2.532,1.000 2.273,1.002 2.011,1.453 C0.987,3.214 1.441,8.919 4.508,14.209 L4.069,14.458 L4.532,14.249 Z"/>
        </g>
    </symbol>
    <symbol id="hamburger" viewBox="0 0 30 28">
        <g>
            <path fill="rgb(11, 13, 12)" d="M-0.000,28.000 L-0.000,25.469 L30.000,25.469 L30.000,28.000 L-0.000,28.000 ZM-0.000,12.718 L30.000,12.718 L30.000,15.281 L-0.000,15.281 L-0.000,12.718 ZM-0.000,-0.000 L30.000,-0.000 L30.000,2.531 L-0.000,2.531 L-0.000,-0.000 Z"/>
        </g>
    </symbol>
    <symbol id="form-email" viewBox="0 0 13 18">
        <g>
            <path d="M10.347,17.999 C10.340,17.999 10.333,17.999 10.327,17.999 C8.329,17.982 4.646,15.277 2.347,11.279 L2.304,11.200 L2.887,10.769 L2.260,11.127 C-0.039,7.128 -0.517,2.594 0.478,0.867 C0.798,0.312 1.283,0.003 1.842,-0.001 L4.203,0.105 C4.650,0.130 5.051,0.389 5.286,0.796 L5.335,0.888 C5.511,1.208 5.519,1.473 5.530,1.886 C5.535,2.036 5.540,2.228 5.553,2.479 C5.601,2.884 5.670,3.445 5.741,3.814 C5.879,4.543 5.464,5.259 4.797,5.445 L4.181,5.609 C4.159,5.604 4.163,5.578 4.164,5.576 C4.122,5.819 4.385,6.820 5.285,8.581 C5.442,8.887 5.578,9.139 5.663,9.287 C5.746,9.431 5.894,9.675 6.081,9.966 C7.074,11.513 7.778,12.255 8.059,12.421 L8.543,11.977 C9.047,11.492 9.876,11.497 10.435,11.982 C10.721,12.231 11.172,12.574 11.534,12.846 C11.709,12.959 11.872,13.061 12.001,13.141 C12.368,13.368 12.597,13.511 12.791,13.856 L12.820,13.902 C13.054,14.310 13.074,14.786 12.874,15.174 L11.786,17.233 C11.484,17.739 10.980,17.999 10.347,17.999 ZM3.527,10.433 L3.585,10.534 C5.657,14.141 8.665,16.235 10.051,16.525 C10.364,16.589 10.505,16.545 10.526,16.530 L11.548,14.594 L11.538,14.574 C11.499,14.526 11.365,14.442 11.236,14.362 C11.099,14.277 10.926,14.170 10.701,14.022 C10.285,13.711 9.808,13.348 9.488,13.070 L9.111,13.442 C8.819,13.728 8.421,13.868 8.012,13.878 C7.672,13.873 6.867,13.859 4.863,10.742 C4.662,10.427 4.503,10.163 4.409,10.003 C4.316,9.839 4.169,9.568 3.998,9.236 C2.312,5.936 2.707,5.237 2.876,4.939 C3.074,4.587 3.413,4.323 3.807,4.218 L4.315,4.083 C4.238,3.640 4.168,3.062 4.114,2.600 C4.096,2.289 4.091,2.085 4.086,1.925 C4.082,1.773 4.077,1.616 4.067,1.575 L4.044,1.539 L1.814,1.438 C1.827,1.448 1.718,1.547 1.617,1.845 C1.163,3.180 1.453,6.825 3.513,10.410 L3.513,10.410 C3.513,10.410 3.513,10.410 3.513,10.411 L2.887,10.769 L3.527,10.433 ZM8.115,12.449 L8.115,12.449 L8.115,12.449 Z"/>
        </g>
    </symbol>
    <symbol id="form-tel" viewBox="0 0 19 18">
        <g>
            <path d="M18.224,13.034 C17.612,14.138 15.998,15.633 14.482,15.331 C13.870,15.211 13.141,14.765 12.731,13.480 C12.118,14.132 11.360,14.595 10.328,14.903 C9.933,15.020 9.520,15.078 9.101,15.078 C8.062,15.078 6.989,14.724 6.068,14.052 C4.648,13.015 3.800,11.388 3.800,9.700 C3.800,5.312 7.436,3.719 9.880,3.719 C10.958,3.719 12.103,4.056 12.852,4.607 C12.889,4.482 12.918,4.352 12.959,4.231 C13.091,3.839 13.521,3.625 13.920,3.758 C14.319,3.888 14.534,4.312 14.401,4.703 C13.812,6.441 13.662,9.044 13.978,12.031 C14.092,13.103 14.391,13.789 14.780,13.865 C15.377,13.983 16.457,13.099 16.888,12.319 C17.292,11.590 17.480,10.640 17.480,9.327 C17.480,8.267 17.270,7.237 16.855,6.267 C16.446,5.332 15.868,4.492 15.141,3.777 C14.414,3.062 13.561,2.493 12.604,2.088 C10.645,1.277 8.361,1.275 6.390,2.090 C5.439,2.493 4.586,3.062 3.859,3.777 C3.132,4.492 2.554,5.332 2.142,6.273 C1.730,7.237 1.520,8.267 1.520,9.327 C1.520,10.388 1.730,11.417 2.144,12.388 C2.554,13.322 3.132,14.162 3.859,14.877 C4.586,15.592 5.439,16.161 6.396,16.566 C6.781,16.730 6.959,17.170 6.793,17.549 C6.669,17.832 6.389,18.001 6.095,18.001 C5.995,18.001 5.893,17.981 5.795,17.940 C4.660,17.459 3.647,16.784 2.784,15.935 C1.920,15.085 1.235,14.089 0.746,12.973 C0.250,11.813 -0.000,10.588 -0.000,9.327 C-0.000,8.066 0.250,6.842 0.743,5.688 C1.235,4.566 1.920,3.569 2.784,2.720 C3.647,1.870 4.660,1.196 5.795,0.715 C8.153,-0.261 10.853,-0.259 13.199,0.712 C14.339,1.196 15.352,1.870 16.216,2.720 C17.080,3.569 17.765,4.566 18.254,5.682 C18.750,6.842 19.000,8.066 19.000,9.327 C19.000,10.900 18.753,12.078 18.224,13.034 ZM12.160,5.963 C12.068,5.765 11.102,5.215 9.880,5.215 C8.303,5.215 5.320,6.152 5.320,9.700 C5.320,10.918 5.938,12.095 6.974,12.850 C7.881,13.512 8.970,13.745 9.887,13.472 C11.061,13.122 11.722,12.598 12.245,11.601 C12.283,11.528 12.339,11.471 12.395,11.416 C12.274,9.945 12.238,8.201 12.454,6.538 C12.279,6.401 12.160,6.199 12.160,5.963 Z"/>
        </g>
    </symbol>
</svg>