<svg 
 xmlns="http://www.w3.org/2000/svg"
 xmlns:xlink="http://www.w3.org/1999/xlink"
 width="86px" height="86px">
<path fill-rule="evenodd"  fill="rgb(0, 0, 0)"
 d="M77.677,19.308 L77.677,46.508 C82.744,50.580 86.000,56.816 86.000,63.805 C86.000,76.043 76.044,85.999 63.806,85.999 C52.039,85.999 42.405,76.783 41.683,65.192 L-0.000,65.192 L-0.000,9.709 L66.581,9.709 C66.581,4.357 70.936,-0.001 76.290,-0.001 C81.644,-0.001 86.000,4.357 86.000,9.709 C86.000,14.590 82.375,18.631 77.677,19.308 ZM83.226,63.805 C83.226,53.566 75.255,45.173 65.194,44.457 L65.194,50.005 C72.193,50.703 77.677,56.626 77.677,63.805 C77.677,65.835 77.228,67.759 76.441,69.498 L81.253,72.276 C82.504,69.714 83.226,66.844 83.226,63.805 ZM63.806,52.709 C57.688,52.709 52.710,57.687 52.710,63.805 C52.710,69.924 57.688,74.902 63.806,74.902 C69.925,74.902 74.903,69.924 74.903,63.805 C74.903,57.687 69.925,52.709 63.806,52.709 ZM63.806,83.224 C70.484,83.224 76.384,79.836 79.880,74.687 L75.049,71.898 C72.527,75.391 68.434,77.676 63.806,77.676 C59.179,77.676 55.086,75.391 52.564,71.898 L47.733,74.687 C51.229,79.836 57.129,83.224 63.806,83.224 ZM46.359,72.276 L51.172,69.498 C50.385,67.759 49.935,65.835 49.935,63.805 C49.935,56.626 55.420,50.704 62.419,50.005 L62.419,44.457 C52.358,45.173 44.387,53.566 44.387,63.805 C44.387,66.844 45.109,69.714 46.359,72.276 ZM44.387,53.084 L44.387,45.773 L41.613,45.773 L41.613,56.870 L42.738,56.870 C43.173,55.550 43.722,54.283 44.387,53.084 ZM66.990,12.483 L2.774,12.483 L2.774,62.418 L41.683,62.418 C41.742,61.478 41.846,60.550 42.018,59.644 L38.839,59.644 L38.839,42.999 L47.161,42.999 L47.161,49.176 C51.231,44.549 57.176,41.612 63.806,41.612 C67.851,41.612 71.634,42.717 74.903,44.616 L74.903,19.309 C73.262,19.071 71.756,18.427 70.486,17.475 L62.002,25.958 C62.262,26.501 62.419,27.100 62.419,27.741 C62.419,30.036 60.553,31.902 58.258,31.902 C55.963,31.902 54.097,30.036 54.097,27.741 C54.097,27.100 54.254,26.501 54.513,25.957 L51.718,23.162 C51.175,23.423 50.576,23.580 49.935,23.580 C49.294,23.580 48.696,23.423 48.152,23.163 L41.196,30.120 C41.456,30.662 41.613,31.262 41.613,31.902 C41.613,34.197 39.746,36.064 37.452,36.064 C35.157,36.064 33.290,34.197 33.290,31.902 C33.290,29.608 35.157,27.741 37.452,27.741 C38.093,27.741 38.691,27.898 39.235,28.158 L46.191,21.201 C45.931,20.659 45.774,20.060 45.774,19.419 C45.774,17.124 47.641,15.257 49.935,15.257 C52.230,15.257 54.097,17.124 54.097,19.419 C54.097,20.060 53.940,20.659 53.680,21.202 L56.475,23.997 C57.018,23.737 57.617,23.580 58.258,23.580 C58.899,23.580 59.498,23.737 60.042,23.997 L68.525,15.513 C67.848,14.610 67.321,13.590 66.990,12.483 ZM59.645,27.741 C59.645,26.975 59.022,26.354 58.258,26.354 C57.494,26.354 56.871,26.975 56.871,27.741 C56.871,28.507 57.494,29.128 58.258,29.128 C59.022,29.128 59.645,28.507 59.645,27.741 ZM51.322,19.419 C51.322,18.653 50.699,18.031 49.935,18.031 C49.171,18.031 48.548,18.653 48.548,19.419 C48.548,20.184 49.171,20.805 49.935,20.805 C50.699,20.805 51.322,20.184 51.322,19.419 ZM38.839,31.902 C38.839,31.137 38.216,30.515 37.452,30.515 C36.688,30.515 36.064,31.137 36.064,31.902 C36.064,32.668 36.688,33.289 37.452,33.289 C38.216,33.289 38.839,32.668 38.839,31.902 ZM76.290,2.773 C72.466,2.773 69.355,5.884 69.355,9.709 C69.355,13.533 72.466,16.645 76.290,16.645 C80.115,16.645 83.226,13.533 83.226,9.709 C83.226,5.884 80.115,2.773 76.290,2.773 ZM11.097,31.902 L30.516,31.902 L30.516,34.677 L11.097,34.677 L11.097,31.902 ZM11.097,26.354 L30.516,26.354 L30.516,29.128 L11.097,29.128 L11.097,26.354 ZM11.097,20.805 L30.516,20.805 L30.516,23.580 L11.097,23.580 L11.097,20.805 ZM11.097,15.257 L30.516,15.257 L30.516,18.031 L11.097,18.031 L11.097,15.257 ZM5.548,31.902 L8.323,31.902 L8.323,34.677 L5.548,34.677 L5.548,31.902 ZM5.548,26.354 L8.323,26.354 L8.323,29.128 L5.548,29.128 L5.548,26.354 ZM5.548,20.805 L8.323,20.805 L8.323,23.580 L5.548,23.580 L5.548,20.805 ZM5.548,15.257 L8.323,15.257 L8.323,18.031 L5.548,18.031 L5.548,15.257 ZM13.871,59.644 L5.548,59.644 L5.548,45.773 L13.871,45.773 L13.871,59.644 ZM11.097,48.547 L8.323,48.547 L8.323,56.870 L11.097,56.870 L11.097,48.547 ZM24.968,59.644 L16.645,59.644 L16.645,48.547 L24.968,48.547 L24.968,59.644 ZM22.193,51.322 L19.419,51.322 L19.419,56.870 L22.193,56.870 L22.193,51.322 ZM36.064,59.644 L27.742,59.644 L27.742,37.451 L36.064,37.451 L36.064,59.644 ZM33.290,40.225 L30.516,40.225 L30.516,56.870 L33.290,56.870 L33.290,40.225 ZM63.806,72.128 C59.216,72.128 55.484,68.396 55.484,63.805 C55.484,59.216 59.216,55.483 63.806,55.483 C68.396,55.483 72.129,59.216 72.129,63.805 C72.129,68.396 68.396,72.128 63.806,72.128 ZM63.806,58.257 C60.747,58.257 58.258,60.746 58.258,63.805 C58.258,66.865 60.747,69.354 63.806,69.354 C66.866,69.354 69.355,66.865 69.355,63.805 C69.355,60.746 66.866,58.257 63.806,58.257 Z"/>
</svg>