<svg 
 xmlns="http://www.w3.org/2000/svg"
 xmlns:xlink="http://www.w3.org/1999/xlink"
 width="88px" height="88px">
<path fill-rule="evenodd"  fill="rgb(35, 34, 33)"
 d="M80.903,79.483 L63.871,79.483 L63.871,85.160 L69.548,85.160 L69.548,87.999 L18.452,87.999 L18.452,85.160 L24.129,85.160 L24.129,79.483 L7.097,79.483 C3.184,79.483 -0.000,76.299 -0.000,72.386 L-0.000,21.289 C-0.000,17.376 3.184,14.193 7.097,14.193 L14.193,14.193 L14.193,-0.001 L73.806,-0.001 L73.806,14.193 L80.903,14.193 C84.816,14.193 88.000,17.376 88.000,21.289 L88.000,72.386 C88.000,76.299 84.816,79.483 80.903,79.483 ZM26.968,85.160 L61.032,85.160 L61.032,79.483 L26.968,79.483 L26.968,85.160 ZM85.161,21.289 C85.161,18.942 83.250,17.031 80.903,17.031 L70.968,17.031 L70.968,2.837 L17.032,2.837 L17.032,59.612 L70.968,59.612 L70.968,22.709 L67.419,22.709 L61.797,30.204 L59.166,19.679 L54.908,28.195 L52.827,19.870 L48.258,19.870 L48.258,8.515 L22.710,8.515 L22.710,31.224 L48.258,31.224 L48.258,22.709 L51.097,22.709 L51.097,34.064 L19.871,34.064 L19.871,5.676 L51.097,5.676 L51.097,17.031 L55.044,17.031 L55.800,20.061 L60.059,11.545 L63.104,23.729 L66.000,19.870 L73.806,19.870 L73.806,62.451 L14.193,62.451 L14.193,17.031 L7.097,17.031 C4.749,17.031 2.839,18.942 2.839,21.289 L2.839,70.967 L61.864,70.967 L67.541,65.289 L85.161,65.289 L85.161,21.289 ZM85.161,68.128 L68.717,68.128 L63.039,73.805 L3.100,73.805 C3.688,75.453 5.249,76.644 7.097,76.644 L80.903,76.644 C83.250,76.644 85.161,74.734 85.161,72.386 L85.161,68.128 ZM79.484,70.967 L82.323,70.967 L82.323,73.805 L79.484,73.805 L79.484,70.967 ZM73.806,70.967 L76.645,70.967 L76.645,73.805 L73.806,73.805 L73.806,70.967 ZM68.129,70.967 L70.968,70.967 L70.968,73.805 L68.129,73.805 L68.129,70.967 ZM22.710,36.903 L25.548,36.903 L25.548,45.419 L28.387,45.419 L28.387,48.257 L25.548,48.257 L25.548,56.773 L22.710,56.773 L22.710,48.257 L19.871,48.257 L19.871,45.419 L22.710,45.419 L22.710,36.903 ZM34.064,36.903 L36.903,36.903 L36.903,51.096 L39.742,51.096 L39.742,53.935 L36.903,53.935 L36.903,56.773 L34.064,56.773 L34.064,53.935 L31.226,53.935 L31.226,51.096 L34.064,51.096 L34.064,36.903 ZM45.419,36.903 L48.258,36.903 L48.258,39.741 L51.097,39.741 L51.097,42.580 L48.258,42.580 L48.258,56.773 L45.419,56.773 L45.419,42.580 L42.581,42.580 L42.581,39.741 L45.419,39.741 L45.419,36.903 ZM68.129,39.741 L53.935,39.741 L53.935,36.903 L68.129,36.903 L68.129,39.741 ZM68.129,45.419 L53.935,45.419 L53.935,42.580 L68.129,42.580 L68.129,45.419 ZM68.129,51.096 L53.935,51.096 L53.935,48.257 L68.129,48.257 L68.129,51.096 ZM56.774,56.773 L53.935,56.773 L53.935,53.935 L56.774,53.935 L56.774,56.773 ZM62.452,56.773 L59.613,56.773 L59.613,53.935 L62.452,53.935 L62.452,56.773 ZM68.129,56.773 L65.290,56.773 L65.290,53.935 L68.129,53.935 L68.129,56.773 ZM29.806,26.779 L29.806,10.120 L40.172,17.031 L45.419,17.031 L45.419,19.870 L40.172,19.870 L29.806,26.779 ZM32.645,15.425 L32.645,21.475 L37.182,18.451 L32.645,15.425 Z"/>
</svg>