<svg 
 xmlns="http://www.w3.org/2000/svg"
 xmlns:xlink="http://www.w3.org/1999/xlink"
 width="92px" height="93px">
<path fill-rule="evenodd"  fill="rgb(35, 34, 33)"
 d="M87.548,92.999 C85.094,92.999 83.097,91.011 83.097,88.571 C83.097,86.129 85.094,84.142 87.548,84.142 C90.002,84.142 92.000,86.129 92.000,88.571 C92.000,91.011 90.002,92.999 87.548,92.999 ZM87.548,87.094 C86.731,87.094 86.064,87.756 86.064,88.571 C86.064,89.385 86.731,90.047 87.548,90.047 C88.366,90.047 89.032,89.385 89.032,88.571 C89.032,87.756 88.366,87.094 87.548,87.094 ZM86.064,76.761 L89.032,76.761 L89.032,79.713 L86.064,79.713 L86.064,76.761 ZM86.064,69.380 L89.032,69.380 L89.032,72.332 L86.064,72.332 L86.064,69.380 ZM86.064,61.999 L89.032,61.999 L89.032,64.951 L86.064,64.951 L86.064,61.999 ZM76.785,52.668 L79.715,58.499 L68.191,70.055 C68.056,70.926 67.669,71.707 67.102,72.332 C67.813,73.118 68.260,74.147 68.260,75.285 C68.260,76.422 67.814,77.452 67.102,78.237 C67.813,79.023 68.260,80.052 68.260,81.189 C68.260,83.631 66.262,85.618 63.808,85.618 L53.419,85.618 L53.419,87.094 C53.419,90.350 50.757,92.999 47.484,92.999 C44.210,92.999 41.548,90.350 41.548,87.094 L41.548,85.618 L33.515,85.618 L29.063,81.189 L17.806,81.189 L17.806,85.618 L7.419,85.618 L7.419,56.094 L16.259,56.094 L18.167,52.636 C17.551,51.391 17.025,50.135 16.591,48.881 L10.387,46.824 L10.387,29.935 L16.591,27.876 C17.028,26.614 17.562,25.346 18.183,24.092 L15.249,18.256 L27.255,6.312 L33.121,9.231 C34.382,8.612 35.657,8.081 36.926,7.647 L38.994,1.475 L55.973,1.475 L58.042,7.647 C59.311,8.081 60.585,8.612 61.847,9.231 L67.713,6.312 L79.718,18.256 L76.785,24.092 C77.406,25.346 77.940,26.614 78.376,27.876 L84.581,29.935 L84.581,46.825 L78.376,48.884 C77.939,50.146 77.406,51.414 76.785,52.668 ZM14.839,59.047 L10.387,59.047 L10.387,82.666 L14.839,82.666 L14.839,59.047 ZM51.935,82.666 L63.808,82.666 C64.625,82.666 65.292,82.004 65.292,81.189 C65.292,80.375 64.625,79.713 63.808,79.713 L51.935,79.713 C51.118,79.713 50.452,80.375 50.452,81.189 C50.452,82.004 51.118,82.666 51.935,82.666 ZM51.321,44.285 L56.387,39.245 L56.387,32.475 C56.387,30.847 55.056,29.522 53.419,29.522 L53.419,36.039 L51.066,38.380 L43.902,38.380 L41.548,36.039 L41.548,29.522 C39.912,29.522 38.581,30.847 38.581,32.475 L38.581,39.245 L43.646,44.285 L51.321,44.285 ZM44.516,47.237 L44.516,53.142 L50.452,53.142 L50.452,47.237 L44.516,47.237 ZM41.548,46.372 L35.613,40.467 L35.613,32.475 C35.613,29.219 38.275,26.571 41.548,26.571 L44.516,26.571 L44.516,34.816 L45.130,35.427 L49.837,35.427 L50.452,34.816 L50.452,26.571 L53.419,26.571 C56.693,26.571 59.355,29.219 59.355,32.475 L59.355,40.467 L53.419,46.372 L53.419,53.142 L57.257,53.142 C62.286,49.843 65.290,44.363 65.290,38.380 C65.290,28.612 57.303,20.666 47.484,20.666 C37.665,20.666 29.677,28.612 29.677,38.380 C29.677,44.407 32.807,49.983 37.873,53.235 L37.966,53.142 L41.548,53.142 L41.548,46.372 ZM26.710,38.380 C26.710,26.984 36.028,17.713 47.484,17.713 C58.940,17.713 68.258,26.984 68.258,38.380 C68.258,44.584 65.503,50.336 60.773,54.242 C61.545,54.907 62.082,55.822 62.251,56.869 C67.911,52.407 71.226,45.675 71.226,38.380 C71.226,25.357 60.574,14.761 47.484,14.761 C34.393,14.761 23.742,25.357 23.742,38.380 C23.742,45.964 27.413,53.069 33.575,57.510 L35.712,55.385 C30.119,51.547 26.710,45.198 26.710,38.380 ZM51.935,61.999 C51.118,61.999 50.452,62.661 50.452,63.476 C50.452,64.290 51.118,64.951 51.935,64.951 L63.808,64.951 C64.625,64.951 65.292,64.290 65.292,63.476 C65.292,62.661 64.625,61.999 63.808,61.999 L51.935,61.999 ZM63.808,67.904 L51.935,67.904 C51.118,67.904 50.452,68.565 50.452,69.380 C50.452,70.195 51.118,70.856 51.935,70.856 L63.808,70.856 C64.625,70.856 65.292,70.195 65.292,69.380 C65.292,68.565 64.625,67.904 63.808,67.904 ZM63.808,73.809 L51.935,73.809 C51.118,73.809 50.452,74.470 50.452,75.285 C50.452,76.099 51.118,76.761 51.935,76.761 L63.808,76.761 C64.625,76.761 65.292,76.099 65.292,75.285 C65.292,74.470 64.625,73.809 63.808,73.809 ZM44.516,87.094 C44.516,88.722 45.847,90.047 47.484,90.047 C49.121,90.047 50.452,88.722 50.452,87.094 L50.452,85.346 C48.729,84.735 47.484,83.111 47.484,81.189 C47.484,80.052 47.929,79.023 48.641,78.237 C47.930,77.452 47.484,76.422 47.484,75.285 C47.484,74.147 47.929,73.118 48.641,72.332 C47.930,71.547 47.484,70.518 47.484,69.380 C47.484,68.242 47.929,67.213 48.641,66.427 C47.930,65.642 47.484,64.613 47.484,63.476 C47.484,62.955 47.590,62.463 47.757,61.999 L44.516,61.999 L44.516,87.094 ZM17.806,78.237 L30.292,78.237 L34.743,82.666 L41.548,82.666 L41.548,64.086 L38.146,67.471 L36.048,65.384 L42.418,59.047 L57.871,59.047 C58.688,59.047 59.355,58.385 59.355,57.571 C59.355,56.756 58.688,56.094 57.871,56.094 L39.195,56.094 L33.259,61.999 L17.806,61.999 L17.806,78.237 ZM81.613,32.064 L76.013,30.205 L75.786,29.486 C75.290,27.922 74.624,26.339 73.806,24.777 L73.457,24.109 L76.106,18.837 L67.127,9.904 L61.828,12.539 L61.156,12.192 C59.588,11.379 57.994,10.716 56.422,10.223 L55.700,9.998 L53.834,4.427 L41.135,4.427 L39.266,9.998 L38.544,10.224 C36.972,10.718 35.380,11.380 33.810,12.194 L33.138,12.541 L27.839,9.906 L18.860,18.839 L21.509,24.110 L21.160,24.779 C20.342,26.339 19.676,27.924 19.180,29.488 L18.953,30.206 L13.355,32.062 L13.355,44.696 L18.953,46.554 L19.182,47.271 C19.679,48.836 20.345,50.422 21.162,51.981 L21.528,52.681 L18.016,59.047 L30.708,59.047 C24.457,54.019 20.774,46.438 20.774,38.380 C20.774,23.729 32.757,11.809 47.484,11.809 C62.211,11.809 74.194,23.729 74.194,38.380 C74.194,46.538 70.512,54.069 64.217,59.087 C66.477,59.298 68.260,61.173 68.260,63.476 C68.260,64.613 67.814,65.642 67.102,66.427 C67.185,66.519 67.265,66.617 67.341,66.715 L76.109,57.925 L73.457,52.650 L73.806,51.981 C74.622,50.422 75.288,48.836 75.786,47.271 L76.014,46.554 L81.613,44.697 L81.613,32.064 ZM4.451,8.856 C1.998,8.856 -0.000,6.869 -0.000,4.427 C-0.000,1.987 1.998,-0.000 4.451,-0.000 C6.905,-0.000 8.903,1.987 8.903,4.427 C8.903,6.869 6.905,8.856 4.451,8.856 ZM4.451,2.951 C3.634,2.951 2.968,3.614 2.968,4.427 C2.968,5.241 3.634,5.904 4.451,5.904 C5.269,5.904 5.935,5.241 5.935,4.427 C5.935,3.614 5.269,2.951 4.451,2.951 ZM5.935,16.237 L2.968,16.237 L2.968,13.285 L5.935,13.285 L5.935,16.237 ZM5.935,23.618 L2.968,23.618 L2.968,20.666 L5.935,20.666 L5.935,23.618 ZM5.935,30.999 L2.968,30.999 L2.968,28.047 L5.935,28.047 L5.935,30.999 Z"/>
</svg>