<svg 
 xmlns="http://www.w3.org/2000/svg"
 xmlns:xlink="http://www.w3.org/1999/xlink"
 width="93px" height="87px">
<path fill-rule="evenodd"  fill="rgb(0, 0, 0)"
 d="M85.500,86.999 L7.500,86.999 C3.360,86.994 0.005,83.640 -0.000,79.499 L-0.000,76.499 C0.005,72.358 3.360,69.003 7.500,68.999 L55.500,68.999 L55.500,56.999 C55.500,56.171 56.172,55.499 57.000,55.499 L64.500,55.499 L64.500,43.498 C64.500,42.671 65.171,41.999 66.000,41.999 L79.500,41.999 C80.328,41.999 81.000,42.671 81.000,43.498 L81.000,55.499 L84.000,55.499 C84.828,55.499 85.500,56.171 85.500,56.999 L85.500,68.999 C89.640,69.003 92.995,72.358 93.000,76.499 L93.000,79.499 C92.995,83.640 89.640,86.994 85.500,86.999 ZM58.500,58.499 L58.500,68.999 L69.000,68.999 L69.000,58.499 L58.500,58.499 ZM78.000,44.999 L67.500,44.999 L67.500,55.499 L78.000,55.499 L78.000,44.999 ZM82.500,58.499 L72.000,58.499 L72.000,68.999 L82.500,68.999 L82.500,58.499 ZM90.000,76.499 C90.000,74.013 87.985,71.999 85.500,71.999 L7.500,71.999 C5.015,71.999 3.000,74.013 3.000,76.499 L3.000,79.499 C3.000,81.984 5.015,83.999 7.500,83.999 L85.500,83.999 C87.985,83.999 90.000,81.984 90.000,79.499 L90.000,76.499 ZM76.500,82.498 C74.015,82.498 72.000,80.484 72.000,77.999 C72.000,75.514 74.015,73.498 76.500,73.498 C78.985,73.498 81.000,75.514 81.000,77.999 C81.000,80.484 78.985,82.498 76.500,82.498 ZM76.500,76.499 C75.671,76.499 75.000,77.171 75.000,77.999 C75.000,78.827 75.671,79.499 76.500,79.499 C77.329,79.499 78.000,78.827 78.000,77.999 C78.000,77.171 77.329,76.499 76.500,76.499 ZM61.500,82.498 C59.015,82.498 57.000,80.484 57.000,77.999 C57.000,75.514 59.015,73.498 61.500,73.498 C63.985,73.498 66.000,75.514 66.000,77.999 C66.000,80.484 63.985,82.498 61.500,82.498 ZM61.500,76.499 C60.671,76.499 60.000,77.171 60.000,77.999 C60.000,78.827 60.671,79.499 61.500,79.499 C62.329,79.499 63.000,78.827 63.000,77.999 C63.000,77.171 62.329,76.499 61.500,76.499 ZM46.500,82.498 C44.015,82.498 42.000,80.484 42.000,77.999 C42.000,75.514 44.015,73.498 46.500,73.498 C48.985,73.498 51.000,75.514 51.000,77.999 C51.000,80.484 48.985,82.498 46.500,82.498 ZM46.500,76.499 C45.671,76.499 45.000,77.171 45.000,77.999 C45.000,78.827 45.671,79.499 46.500,79.499 C47.329,79.499 48.000,78.827 48.000,77.999 C48.000,77.171 47.329,76.499 46.500,76.499 ZM31.500,82.498 C29.015,82.498 27.000,80.484 27.000,77.999 C27.000,75.514 29.015,73.498 31.500,73.498 C33.985,73.498 36.000,75.514 36.000,77.999 C36.000,80.484 33.985,82.498 31.500,82.498 ZM31.500,76.499 C30.672,76.499 30.001,77.171 30.001,77.999 C30.001,78.827 30.672,79.499 31.500,79.499 C32.329,79.499 33.000,78.827 33.000,77.999 C33.000,77.171 32.329,76.499 31.500,76.499 ZM16.500,82.498 C14.015,82.498 12.000,80.484 12.000,77.999 C12.000,75.514 14.015,73.498 16.500,73.498 C18.985,73.498 21.000,75.514 21.000,77.999 C21.000,80.484 18.985,82.498 16.500,82.498 ZM16.500,76.499 C15.672,76.499 15.000,77.171 15.000,77.999 C15.000,78.827 15.672,79.499 16.500,79.499 C17.329,79.499 18.000,78.827 18.000,77.999 C18.000,77.171 17.329,76.499 16.500,76.499 ZM61.500,37.498 L53.179,37.498 C52.686,39.274 51.978,40.981 51.066,42.581 L56.957,48.469 C57.238,48.750 57.396,49.131 57.396,49.530 C57.396,49.929 57.238,50.309 56.957,50.591 L50.592,56.957 C49.997,57.519 49.066,57.519 48.471,56.957 L42.581,51.065 C40.981,51.976 39.275,52.685 37.500,53.177 L37.500,61.498 C37.500,62.327 36.829,62.999 36.000,62.999 L27.000,62.999 C26.172,62.999 25.500,62.327 25.500,61.498 L25.500,53.177 C23.725,52.685 22.020,51.976 20.420,51.065 L14.529,56.957 C13.943,57.540 12.994,57.540 12.408,56.957 L6.045,50.591 C5.763,50.309 5.606,49.929 5.606,49.530 C5.606,49.131 5.763,48.750 6.045,48.469 L11.935,42.581 C11.023,40.981 10.314,39.274 9.822,37.498 L1.500,37.498 C0.672,37.498 -0.000,36.827 -0.000,35.999 L-0.000,26.998 C-0.000,26.170 0.672,25.499 1.500,25.499 L9.822,25.499 C10.314,23.724 11.023,22.017 11.935,20.417 L6.043,14.530 C5.762,14.248 5.604,13.867 5.604,13.468 C5.604,13.070 5.762,12.688 6.043,12.407 L12.408,6.042 C13.003,5.480 13.934,5.480 14.529,6.042 L20.420,11.933 C22.020,11.023 23.726,10.313 25.500,9.821 L25.500,1.499 C25.500,0.671 26.172,-0.001 27.000,-0.001 L36.000,-0.001 C36.829,-0.001 37.500,0.671 37.500,1.499 L37.500,9.821 C39.275,10.313 40.981,11.023 42.581,11.933 L48.471,6.042 C49.057,5.457 50.006,5.457 50.592,6.042 L56.955,12.407 C57.237,12.688 57.395,13.070 57.395,13.468 C57.395,13.867 57.237,14.248 56.955,14.530 L51.066,20.417 C51.978,22.017 52.686,23.724 53.179,25.499 L61.500,25.499 C62.329,25.499 63.000,26.170 63.000,26.998 L63.000,35.999 C63.000,36.827 62.329,37.498 61.500,37.498 ZM60.000,28.501 L52.004,28.501 C51.299,28.501 50.689,28.009 50.538,27.321 C50.046,25.074 49.157,22.934 47.912,20.999 C47.531,20.405 47.614,19.626 48.114,19.127 L53.774,13.468 L49.532,9.224 L43.872,14.884 C43.374,15.384 42.595,15.468 42.000,15.088 C40.066,13.843 37.926,12.952 35.679,12.460 C34.991,12.309 34.500,11.699 34.500,10.994 L34.500,2.998 L28.500,2.998 L28.500,10.994 C28.500,11.699 28.009,12.309 27.321,12.460 C25.075,12.952 22.935,13.843 21.000,15.088 C20.406,15.468 19.627,15.384 19.128,14.884 L13.469,9.224 L9.225,13.468 L14.886,19.128 C15.384,19.628 15.469,20.406 15.088,20.999 C13.843,22.933 12.953,25.074 12.461,27.320 C12.310,28.008 11.700,28.499 10.995,28.499 L3.000,28.499 L3.000,34.499 L10.995,34.499 C11.700,34.499 12.310,34.988 12.461,35.677 C12.953,37.923 13.843,40.065 15.088,41.999 C15.469,42.593 15.386,43.372 14.886,43.871 L9.226,49.531 L13.469,53.774 L19.128,48.113 C19.627,47.614 20.406,47.529 21.000,47.910 C22.933,49.156 25.073,50.046 27.320,50.538 C28.008,50.688 28.500,51.299 28.500,52.003 L28.500,59.999 L34.500,59.999 L34.500,52.003 C34.500,51.299 34.992,50.688 35.681,50.538 C37.927,50.046 40.067,49.156 42.000,47.910 C42.595,47.529 43.374,47.614 43.872,48.113 L49.532,53.774 L53.775,49.529 L48.114,43.870 C47.616,43.371 47.532,42.592 47.912,41.999 C49.157,40.066 50.046,37.926 50.538,35.679 C50.689,34.991 51.299,34.501 52.004,34.501 L60.000,34.501 L60.000,28.501 ZM31.500,47.998 C22.392,47.988 15.012,40.607 15.000,31.499 C15.000,22.386 22.388,14.999 31.500,14.999 C40.612,14.999 48.000,22.386 48.000,31.499 C48.000,40.612 40.612,47.998 31.500,47.998 ZM31.500,17.999 C24.048,18.006 18.008,24.047 18.000,31.499 C18.000,38.954 24.044,44.999 31.500,44.999 C38.956,44.999 45.000,38.954 45.000,31.499 C45.000,24.043 38.956,17.999 31.500,17.999 ZM31.500,43.498 C24.876,43.491 19.508,38.123 19.500,31.499 C19.500,24.871 24.873,19.499 31.500,19.499 C38.128,19.499 43.500,24.871 43.500,31.499 C43.500,38.127 38.128,43.498 31.500,43.498 ZM31.500,22.499 C26.532,22.504 22.505,26.530 22.500,31.499 C22.500,36.469 26.531,40.498 31.500,40.498 C36.470,40.498 40.500,36.469 40.500,31.499 C40.500,26.529 36.470,22.499 31.500,22.499 Z"/>
</svg>