<svg 
 xmlns="http://www.w3.org/2000/svg"
 xmlns:xlink="http://www.w3.org/1999/xlink"
 width="92px" height="92px">
<path fill-rule="evenodd"  fill="rgb(0, 0, 0)"
 d="M90.028,50.068 L86.677,53.419 L87.022,53.762 C88.299,55.040 89.031,56.807 89.031,58.612 C89.031,60.417 88.299,62.184 87.022,63.461 L76.291,74.193 C75.894,74.591 75.676,75.116 75.676,75.676 C75.676,76.237 75.894,76.762 76.291,77.160 L78.209,79.079 L76.111,81.177 L74.192,79.258 C73.235,78.303 72.708,77.030 72.708,75.676 C72.708,74.323 73.235,73.052 74.192,72.094 L84.923,61.363 C85.648,60.638 86.063,59.636 86.063,58.612 C86.063,57.588 85.648,56.586 84.923,55.860 L84.579,55.517 L65.289,74.807 L65.289,91.999 L-0.000,91.999 L-0.000,15.707 L15.708,-0.001 L65.289,-0.001 L65.289,55.769 L80.574,40.483 C81.799,39.255 83.429,38.580 85.165,38.580 L85.352,38.580 C87.130,38.580 88.801,39.270 90.055,40.522 C91.309,41.774 92.000,43.441 91.998,45.213 C91.998,47.109 91.298,48.798 90.028,50.068 ZM14.838,5.064 L5.066,14.837 L14.838,14.837 L14.838,5.064 ZM62.322,2.966 L17.806,2.966 L17.806,17.805 L2.968,17.805 L2.968,89.031 L62.322,89.031 L62.322,77.775 L57.163,82.934 L46.207,86.063 L42.723,86.063 C41.433,86.063 40.273,85.347 39.696,84.194 L38.107,81.016 L35.945,84.475 C35.325,85.470 34.250,86.063 33.075,86.063 L31.161,86.063 C29.606,86.063 28.255,85.010 27.880,83.501 L27.114,80.443 C27.021,80.072 26.398,80.072 26.306,80.443 L25.540,83.501 C25.163,85.010 23.812,86.063 22.258,86.063 L17.806,86.063 L17.806,83.096 L22.258,83.096 C22.449,83.096 22.616,82.965 22.661,82.782 L23.427,79.723 C23.804,78.214 25.154,77.160 26.709,77.160 C28.264,77.160 29.615,78.214 29.991,79.721 L30.757,82.780 C30.803,82.965 30.970,83.096 31.161,83.096 L33.075,83.096 C33.218,83.096 33.354,83.022 33.428,82.902 L36.551,77.904 L35.377,75.557 C34.560,73.923 34.128,72.093 34.128,70.266 L34.128,69.741 C34.128,67.287 36.126,65.289 38.580,65.289 C41.034,65.289 43.031,67.287 43.031,69.741 C43.031,71.961 42.410,74.129 41.233,76.013 L39.951,78.066 L42.350,82.866 C42.421,83.007 42.564,83.096 42.723,83.096 L44.881,83.096 L47.645,73.417 L62.322,58.738 L62.322,2.966 ZM53.553,80.877 L49.702,77.026 L48.160,82.419 L53.553,80.877 ZM40.064,69.741 C40.064,68.922 39.399,68.257 38.580,68.257 C37.761,68.257 37.096,68.922 37.096,69.741 L37.096,70.266 C37.096,71.634 37.419,73.006 38.032,74.230 L38.394,74.956 L38.718,74.439 C39.599,73.029 40.064,71.404 40.064,69.741 ZM51.065,74.193 L56.386,79.514 L82.481,53.419 L77.159,48.096 L51.065,74.193 ZM87.959,42.624 C87.265,41.929 86.339,41.548 85.352,41.548 L85.165,41.548 C84.223,41.548 83.337,41.914 82.674,42.580 L79.257,45.998 L84.579,51.321 L87.929,47.970 C88.639,47.261 89.031,46.316 89.031,45.314 C89.031,44.234 88.650,43.313 87.959,42.624 ZM26.709,54.903 L59.354,54.903 L59.354,57.870 L26.709,57.870 L26.709,54.903 ZM26.709,48.967 L59.354,48.967 L59.354,51.935 L26.709,51.935 L26.709,48.967 ZM32.645,43.032 L59.354,43.032 L59.354,45.999 L32.645,45.999 L32.645,43.032 ZM5.935,35.612 L59.354,35.612 L59.354,38.580 L5.935,38.580 L5.935,35.612 ZM5.935,29.676 L59.354,29.676 L59.354,32.644 L5.935,32.644 L5.935,29.676 ZM5.935,23.741 L59.354,23.741 L59.354,26.708 L5.935,26.708 L5.935,23.741 ZM56.386,17.805 L59.354,17.805 L59.354,20.773 L56.386,20.773 L56.386,17.805 ZM56.386,11.870 L59.354,11.870 L59.354,14.837 L56.386,14.837 L56.386,11.870 ZM56.386,5.934 L59.354,5.934 L59.354,8.902 L56.386,8.902 L56.386,5.934 ZM35.612,17.805 L53.418,17.805 L53.418,20.773 L35.612,20.773 L35.612,17.805 ZM35.612,11.870 L53.418,11.870 L53.418,14.837 L35.612,14.837 L35.612,11.870 ZM35.612,5.934 L53.418,5.934 L53.418,8.902 L35.612,8.902 L35.612,5.934 ZM14.838,41.548 C19.749,41.548 23.742,45.541 23.742,50.451 C23.742,55.361 19.749,59.354 14.838,59.354 C9.928,59.354 5.935,55.361 5.935,50.451 C5.935,45.541 9.928,41.548 14.838,41.548 ZM14.838,56.386 C18.112,56.386 20.774,53.724 20.774,50.451 C20.774,47.178 18.112,44.516 14.838,44.516 C11.565,44.516 8.903,47.178 8.903,50.451 C8.903,53.724 11.565,56.386 14.838,56.386 ZM29.677,45.999 L26.709,45.999 L26.709,43.032 L29.677,43.032 L29.677,45.999 ZM26.709,65.289 L5.935,65.289 L5.935,62.322 L26.709,62.322 L26.709,65.289 ZM26.709,71.225 L5.935,71.225 L5.935,68.257 L26.709,68.257 L26.709,71.225 ZM14.838,86.063 L11.871,86.063 L11.871,83.096 L14.838,83.096 L14.838,86.063 Z"/>
</svg>